<svg width="316" height="316" viewBox="0 0 316 316" fill="none" xmlns="http://www.w3.org/2000/svg">
<g clip-path="url(#clip0_127_2011)">
<path fill-rule="evenodd" clip-rule="evenodd" d="M148.896 -0.154297C153.423 -0.154297 157.948 -0.154297 162.475 -0.154297C162.475 -0.0514324 162.475 0.0514324 162.475 0.154297C157.019 0.105416 151.567 0.208281 146.119 0.462891C147.045 0.257161 147.971 0.0514324 148.896 -0.154297Z" fill="#81B6E4"/>
<path fill-rule="evenodd" clip-rule="evenodd" d="M162.474 0.154387C197.054 1.35268 227.913 12.4106 255.053 33.3282C293.134 64.1786 313.398 104.142 315.846 153.217C315.846 156.303 315.846 159.389 315.846 162.475C313.698 205.603 297.238 242.274 266.471 272.488C237.102 299.663 202.334 314.013 162.166 315.537C156.916 315.583 151.67 315.482 146.428 315.229C100.294 311.22 62.6968 291.263 33.6365 255.361C12.6162 228.053 1.45538 197.091 0.154118 162.475C0.113537 156.711 0.216402 150.95 0.462712 145.193C3.08007 115.315 13.1094 88.3647 30.5506 64.3419C59.7056 26.2039 98.2286 4.91093 146.119 0.462981C151.567 0.208371 157.018 0.105507 162.474 0.154387Z" fill="#0266CC"/>
<path fill-rule="evenodd" clip-rule="evenodd" d="M164.943 8.17773C165.251 12.6494 165.353 17.1755 165.252 21.7559C166.957 21.6567 168.603 21.7595 170.189 22.0645C168.441 22.0645 166.692 22.0645 164.943 22.0645C164.943 17.4355 164.943 12.8066 164.943 8.17773Z" fill="#C5D5F6"/>
<path fill-rule="evenodd" clip-rule="evenodd" d="M164.943 8.17773C164.943 12.8066 164.943 17.4355 164.943 22.0645C166.692 22.0645 168.441 22.0645 170.189 22.0645C200.229 24.9383 226.459 36.3564 248.881 56.3184C252.181 53.2241 255.37 50.0354 258.447 46.752C261.837 49.9879 265.18 53.2793 268.477 56.627C268.682 56.9355 268.682 57.2441 268.477 57.5527C265.386 60.5915 262.352 63.6774 259.373 66.8105C280.506 90.5818 292.027 118.458 293.936 150.439C298.462 150.439 302.988 150.439 307.514 150.439C307.514 155.377 307.514 160.314 307.514 165.252C302.988 165.252 298.462 165.252 293.936 165.252C292.143 197.284 280.622 225.16 259.373 248.881C262.481 252.002 265.618 255.088 268.785 258.139C268.991 258.345 268.991 258.55 268.785 258.756C265.386 262.206 261.94 265.601 258.447 268.939C255.361 265.648 252.173 262.459 248.881 259.373C225.073 280.476 197.196 291.997 165.252 293.936C165.252 298.462 165.252 302.988 165.252 307.514C160.314 307.514 155.377 307.514 150.439 307.514C150.439 302.988 150.439 298.462 150.439 293.936C118.369 292.135 90.4926 280.614 66.8105 259.373C63.6154 262.363 60.5294 265.449 57.5527 268.631C57.3247 268.671 57.1189 268.62 56.9355 268.477C53.6845 265.174 50.3927 261.934 47.0605 258.756C46.893 258.737 46.7902 258.635 46.752 258.447C50.0437 255.361 53.2324 252.173 56.3184 248.881C35.2479 225.015 23.7272 197.138 21.7559 165.252C17.2298 165.252 12.7038 165.252 8.17773 165.252C8.17773 160.314 8.17773 155.377 8.17773 150.439C12.7038 150.439 17.2298 150.439 21.7559 150.439C23.7951 118.468 35.3161 90.592 56.3184 66.8105C53.3398 63.6774 50.3051 60.5915 47.2148 57.5527C47.009 57.2441 47.009 56.9355 47.2148 56.627C50.5109 53.2793 53.8539 49.9879 57.2441 46.752C60.5359 49.8379 63.7246 53.0266 66.8105 56.3184C90.5161 35.0711 118.393 23.5501 150.439 21.7559C150.439 17.2298 150.439 12.7038 150.439 8.17773C155.274 8.17773 160.109 8.17773 164.943 8.17773Z" fill="#FBFCFC"/>
<path fill-rule="evenodd" clip-rule="evenodd" d="M158.771 30.0879C159.033 29.6354 159.444 29.3782 160.006 29.3164C158.146 29.0602 156.294 29.1116 154.451 29.4707C154.791 29.6792 155.1 29.8849 155.377 30.0879C154.966 30.0879 154.554 30.0879 154.143 30.0879C154.143 29.6764 154.143 29.265 154.143 28.8535C156.2 28.8535 158.257 28.8535 160.314 28.8535C160.314 29.1621 160.314 29.4707 160.314 29.7793C159.785 29.819 159.27 29.9219 158.771 30.0879Z" fill="#96896F"/>
<path fill-rule="evenodd" clip-rule="evenodd" d="M150.131 29.7793C148.995 29.7283 147.863 29.7797 146.736 29.9336C147.118 30.0052 147.427 30.1595 147.662 30.3965C147.045 30.3965 146.428 30.3965 145.811 30.3965C145.811 31.9395 145.811 33.4824 145.811 35.0254C145.506 33.4392 145.403 31.7932 145.502 30.0879C145.252 29.7016 144.326 29.6502 142.725 29.9336C142.416 30.0365 142.107 30.1393 141.799 30.2422C142.081 30.3281 142.287 30.4824 142.416 30.7051C141.43 30.8052 141.122 30.4452 141.49 29.625C143.395 29.4864 145.298 29.3322 147.199 29.1621C148.264 29.1376 149.241 29.3433 150.131 29.7793Z" fill="#9C8150"/>
<path fill-rule="evenodd" clip-rule="evenodd" d="M158.771 30.0878C158.67 33.3323 158.773 36.521 159.08 39.6542C159.357 39.8572 159.666 40.0628 160.006 40.2714C158.163 40.6306 156.311 40.6818 154.451 40.4257C154.623 40.3075 154.726 40.1532 154.76 39.9628C155.168 40.0152 155.528 39.9125 155.84 39.6542C156.046 36.5682 156.046 33.4823 155.84 30.3964C155.722 30.2248 155.567 30.1219 155.377 30.0878C155.1 29.8848 154.791 29.6791 154.451 29.4706C156.294 29.1115 158.146 29.0601 160.006 29.3163C159.444 29.3781 159.033 29.6353 158.771 30.0878Z" fill="#BF9138"/>
<path fill-rule="evenodd" clip-rule="evenodd" d="M145.811 35.0254C148.352 34.8467 149.175 33.5096 148.279 31.0137C147.964 30.9041 147.758 30.6982 147.662 30.3965C147.427 30.1595 147.118 30.0052 146.736 29.9336C147.863 29.7797 148.995 29.7283 150.131 29.7793C151.553 30.4658 152.016 31.5972 151.52 33.1738C150.994 34.162 150.223 34.8819 149.205 35.334C150.626 36.7001 151.86 38.1919 152.908 39.8086C153.307 39.9598 153.719 40.0113 154.143 39.9629C152.842 40.5603 151.402 40.7662 149.822 40.5801C148.824 38.9109 147.641 37.3679 146.273 35.9512C146.068 37.2883 146.068 38.6258 146.273 39.9629C146.692 40.2345 147.155 40.3375 147.662 40.2715C147.662 40.5801 147.662 40.8887 147.662 41.1973C146.53 41.1973 145.399 41.1973 144.268 41.1973C143.54 41.2476 142.82 41.1963 142.107 41.043C142.279 40.9248 142.382 40.7705 142.416 40.5801C142.723 40.6066 142.98 40.5036 143.188 40.2715C143.239 39.5515 143.29 38.8313 143.342 38.1113C143.322 35.517 143.013 33.0482 142.416 30.7051C142.287 30.4824 142.082 30.3281 141.799 30.2422C142.107 30.1393 142.416 30.0365 142.725 29.9336C144.326 29.6502 145.252 29.7016 145.502 30.0879C145.403 31.7932 145.506 33.4392 145.811 35.0254Z" fill="#C09238"/>
<path fill-rule="evenodd" clip-rule="evenodd" d="M168.338 29.4707C169.406 29.7736 170.538 29.8765 171.732 29.7793C171.908 30.9609 171.702 31.9898 171.115 32.8652C170.908 31.0121 169.879 30.1891 168.029 30.3965C167.862 33.5858 167.81 36.7745 167.875 39.9629C168.082 40.195 168.339 40.298 168.646 40.2715C168.68 40.4619 168.783 40.6162 168.955 40.7344C167.188 40.9556 165.44 40.8529 163.709 40.4258C164.09 40.3542 164.399 40.1999 164.634 39.9629C164.84 39.9629 164.943 39.8601 164.943 39.6543C165.327 36.4205 165.533 33.1291 165.56 29.7793C164.87 29.6884 164.253 29.7912 163.709 30.0879C163.091 30.8998 162.474 31.7228 161.857 32.5566C161.552 31.4435 161.449 30.3119 161.548 29.1621C163.805 29.3743 166.068 29.4771 168.338 29.4707Z" fill="#C29334"/>
<path fill-rule="evenodd" clip-rule="evenodd" d="M179.139 31.3223C178.624 31.3223 178.11 31.3223 177.596 31.3223C177.596 31.8367 177.596 32.3508 177.596 32.8652C176.802 35.6108 176.596 38.3881 176.979 41.1973C177.256 41.4003 177.564 41.6058 177.904 41.8145C177.647 41.9172 177.39 42.0203 177.133 42.123C175.447 41.8521 173.75 41.749 172.041 41.8145C172.041 41.5059 172.041 41.1973 172.041 40.8887C172.555 40.8887 173.07 40.8887 173.584 40.8887C173.974 40.5758 174.18 40.1129 174.201 39.5C174.393 38.2203 174.496 36.9344 174.51 35.6426C174.51 35.4367 174.51 35.2312 174.51 35.0254C174.864 33.746 174.915 32.4085 174.664 31.0137C174.292 30.8374 173.932 30.6317 173.584 30.3965C173.636 30.2936 173.687 30.1907 173.738 30.0879C175.643 30.347 177.443 30.7584 179.139 31.3223Z" fill="#C29235"/>
<path fill-rule="evenodd" clip-rule="evenodd" d="M147.662 30.3965C147.758 30.6982 147.964 30.9041 148.279 31.0137C149.175 33.5096 148.352 34.8467 145.811 35.0254C145.811 33.4824 145.811 31.9395 145.811 30.3965C146.428 30.3965 147.045 30.3965 147.662 30.3965Z" fill="#ECEAE9"/>
<path fill-rule="evenodd" clip-rule="evenodd" d="M168.338 29.4707C169.572 29.4707 170.807 29.4707 172.041 29.4707C172.041 30.7051 172.041 31.9395 172.041 33.1738C171.643 33.247 171.334 33.1442 171.115 32.8652C171.702 31.9898 171.908 30.9609 171.732 29.7793C170.538 29.8765 169.406 29.7736 168.338 29.4707Z" fill="#83745A"/>
<path fill-rule="evenodd" clip-rule="evenodd" d="M179.139 31.3223C177.443 30.7584 175.643 30.347 173.738 30.0879C173.687 30.1907 173.636 30.2936 173.584 30.3965C173.932 30.6317 174.292 30.8374 174.664 31.0137C174.915 32.4085 174.864 33.746 174.51 35.0254C174.561 33.7867 174.509 32.5523 174.355 31.3223C174.043 31.064 173.683 30.9612 173.275 31.0137C173.275 30.6022 173.275 30.1907 173.275 29.7793C175.323 30.0718 177.381 30.2776 179.447 30.3965C179.52 30.7949 179.418 31.1035 179.139 31.3223Z" fill="#9E9077"/>
<path fill-rule="evenodd" clip-rule="evenodd" d="M134.084 31.0137C134.575 31.0532 134.986 31.259 135.319 31.6309C136.915 34.8254 138.664 37.9114 140.565 40.8887C140.8 41.1257 141.109 41.28 141.491 41.3516C140.839 41.6123 140.222 41.8694 139.639 42.123C138.387 42.2304 137.153 42.436 135.936 42.7402C136.156 42.0076 136.568 41.3904 137.17 40.8887C136.757 40.4289 136.448 39.9147 136.245 39.3457C135.688 38.822 134.967 38.565 134.084 38.5742C134.565 38.2718 135.08 38.0147 135.627 37.8027C135.518 37.4874 135.312 37.2815 135.01 37.1855C134.446 36.4224 134.035 35.5997 133.776 34.7168C133.207 33.7713 133.053 32.7427 133.313 31.6309C133.62 31.4562 133.877 31.2504 134.084 31.0137Z" fill="#C09238"/>
<path fill-rule="evenodd" clip-rule="evenodd" d="M180.99 31.0137C182.71 31.4651 184.458 31.7737 186.236 31.9395C186.447 34.44 186.858 36.9087 187.47 39.3457C188.743 37.4691 189.978 35.566 191.173 33.6367C192.7 33.7873 194.243 33.9416 195.802 34.0996C195.802 34.4082 195.802 34.7168 195.802 35.0254C195.185 35.0254 194.568 35.0254 193.951 35.0254C193.328 37.9231 192.917 40.8547 192.716 43.8203C192.868 44.4319 193.176 44.9464 193.642 45.3633C191.764 45.508 189.912 45.3537 188.088 44.9004C188.088 44.489 188.088 44.0774 188.088 43.666C188.733 43.7222 189.35 43.6191 189.939 43.3574C190.422 40.7859 190.782 38.2144 191.019 35.6426C189.209 38.2329 187.718 41.0103 186.545 43.9746C186.03 43.9746 185.516 43.9746 185.002 43.9746C184.823 40.3335 184.36 36.7331 183.613 33.1738C182.998 36.0388 182.587 38.9189 182.379 41.8145C182.735 42.198 183.146 42.5066 183.613 42.7402C183.762 43.0328 183.813 43.3414 183.767 43.666C182.317 43.4809 180.878 43.2238 179.447 42.8945C179.189 42.5825 179.086 42.2224 179.138 41.8145C180.079 42.0135 180.747 41.7049 181.144 40.8887C181.57 38.3576 182.033 35.8373 182.533 33.3281C181.94 32.5863 181.426 31.8148 180.99 31.0137Z" fill="#B98F3E"/>
<path fill-rule="evenodd" clip-rule="evenodd" d="M133.775 34.7168C134.035 35.5997 134.446 36.4224 135.01 37.1855C134.519 37.9018 133.799 38.2104 132.85 38.1113C132.89 36.8692 133.198 35.7379 133.775 34.7168Z" fill="#EFEFED"/>
<path fill-rule="evenodd" clip-rule="evenodd" d="M177.596 32.8652C177.329 35.6376 177.123 38.415 176.978 41.1973C176.596 38.3881 176.802 35.6108 177.596 32.8652Z" fill="#A09883"/>
<path fill-rule="evenodd" clip-rule="evenodd" d="M127.295 43.0488C127.637 43.2926 128.049 43.4469 128.529 43.5117C127.876 43.8456 127.259 44.2057 126.678 44.5918C125.664 44.9754 124.635 45.387 123.592 45.8262C123.305 45.4593 123.202 45.0479 123.283 44.5918C124.281 44.673 124.693 44.2101 124.518 43.2031C123.964 40.9408 123.295 38.7291 122.512 36.5684C122.012 39.7228 121.755 42.9115 121.74 46.1348C121.188 46.2227 120.674 46.12 120.197 45.8262C118.569 43.3216 116.872 40.8529 115.105 38.4199C114.9 38.9343 114.9 39.4485 115.105 39.9629C115.903 41.8404 116.52 43.7947 116.957 45.8262C117.691 46.2616 118.462 46.6214 119.271 46.9062C117.801 47.3836 116.361 47.9496 114.951 48.6035C114.617 48.3366 114.566 48.028 114.797 47.6777C115.429 47.4932 115.789 47.0818 115.877 46.4434C115.084 43.9036 114.415 41.3321 113.871 38.7285C113.094 38.3027 112.322 37.8913 111.557 37.4941C113.011 36.6483 114.554 36.0311 116.186 35.6426C117.749 37.6336 119.24 39.691 120.66 41.8145C121.222 39.171 121.479 36.4965 121.432 33.791C122.969 33.3815 124.512 32.9702 126.061 32.5566C126.061 32.8652 126.061 33.1738 126.061 33.4824C125.214 33.3519 124.803 33.712 124.826 34.5625C125.861 37.3111 126.684 40.14 127.295 43.0488Z" fill="#BA8F3D"/>
<path fill-rule="evenodd" clip-rule="evenodd" d="M163.709 30.0879C164.254 29.7912 164.871 29.6884 165.561 29.7793C165.533 33.1291 165.327 36.4206 164.943 39.6543C164.989 36.4632 165.092 33.2745 165.252 30.0879C164.738 30.0879 164.223 30.0879 163.709 30.0879Z" fill="#8A7D61"/>
<path fill-rule="evenodd" clip-rule="evenodd" d="M134.084 31.0138C133.877 31.2505 133.62 31.4563 133.313 31.631C133.053 32.7428 133.207 33.7714 133.776 34.7169C133.199 35.738 132.89 36.8694 132.85 38.1114C133.8 38.2105 134.519 37.9019 135.01 37.1857C135.312 37.2816 135.518 37.4875 135.627 37.8028C135.08 38.0149 134.565 38.2719 134.084 38.5743C134.967 38.5651 135.688 38.8221 136.245 39.3458C134.993 38.9696 133.759 39.0724 132.541 39.6544C132.266 40.4518 132.163 41.2748 132.233 42.1232C132.747 42.1232 133.261 42.1232 133.776 42.1232C133.776 42.5345 133.776 42.9462 133.776 43.3575C133.056 43.3575 132.336 43.3575 131.616 43.3575C131.029 43.3369 130.463 43.4399 129.918 43.6661C129.601 43.5624 129.446 43.3566 129.455 43.0489C129.989 42.8585 130.452 42.5499 130.844 42.1232C131.564 38.5228 132.284 34.9227 133.004 31.3224C133.316 31.0641 133.676 30.9613 134.084 31.0138Z" fill="#A8884F"/>
<path fill-rule="evenodd" clip-rule="evenodd" d="M174.51 35.6426C174.496 36.9344 174.393 38.2203 174.201 39.5C174.18 40.1129 173.974 40.5758 173.584 40.8887C173.827 39.1004 174.135 37.3516 174.51 35.6426Z" fill="#95856A"/>
<path fill-rule="evenodd" clip-rule="evenodd" d="M219.873 57.2441C219.876 57.7123 220.082 58.0724 220.49 58.3242C220.307 58.4674 220.101 58.5189 219.873 58.4785C218.34 57.815 216.9 56.992 215.553 56.0098C216.095 55.8576 216.661 55.7546 217.25 55.7012C217.499 54.6128 217.448 53.5842 217.096 52.6152C216.088 52.177 215.111 51.6629 214.164 51.0723C212.288 51.8851 212.031 53.0167 213.393 54.4668C213.238 54.5696 213.084 54.6726 212.93 54.7754C210.84 53.6537 208.732 52.5736 206.604 51.5352C206.346 51.2781 206.089 51.0207 205.832 50.7637C205.707 48.7214 205.244 46.7671 204.443 44.9004C204.032 46.032 203.62 47.1633 203.209 48.2949C203.788 48.7726 204.097 49.3898 204.135 50.1465C202.178 49.6308 200.326 48.8593 198.58 47.832C199.159 47.5182 199.776 47.2608 200.432 47.0605C201.526 44.4431 202.451 41.7685 203.209 39.0371C203.069 38.3601 202.76 37.7944 202.283 37.3398C202.386 37.1855 202.489 37.0312 202.592 36.877C204.047 37.6898 205.589 38.3585 207.221 38.8828C208.64 39.5663 209.926 40.4406 211.078 41.5059C211.29 44.0576 210.106 45.4975 207.529 45.8262C208.104 47.9005 208.824 49.9064 209.689 51.8438C210.409 52.0496 211.13 52.0496 211.85 51.8438C214.106 49.4852 216.471 47.2223 218.947 45.0547C219.523 44.8353 219.986 44.9896 220.336 45.5176C220.154 49.4194 220 53.3281 219.873 57.2441Z" fill="#BC903C"/>
<path fill-rule="evenodd" clip-rule="evenodd" d="M206.295 39.6543C207.496 39.7753 208.113 40.444 208.146 41.6602C208.053 43.0818 207.384 44.0592 206.141 44.5918C205.26 44.6412 204.797 44.2298 204.752 43.3574C205.272 42.12 205.786 40.8856 206.295 39.6543Z" fill="#ECEAE7"/>
<path fill-rule="evenodd" clip-rule="evenodd" d="M159.08 39.6543C159.491 39.6543 159.903 39.6543 160.314 39.6543C160.314 40.0657 160.314 40.4773 160.314 40.8887C156.762 40.9899 153.264 40.8871 149.822 40.5801C151.402 40.7662 152.842 40.5603 154.143 39.9629C154.348 39.9629 154.554 39.9629 154.76 39.9629C154.726 40.1533 154.623 40.3076 154.451 40.4258C156.311 40.6819 158.163 40.6307 160.006 40.2715C159.666 40.0629 159.357 39.8574 159.08 39.6543Z" fill="#9F9686"/>
<path fill-rule="evenodd" clip-rule="evenodd" d="M164.634 39.9629C164.399 40.1999 164.09 40.3542 163.709 40.4258C165.44 40.8529 167.188 40.9556 168.955 40.7344C168.783 40.6162 168.68 40.4619 168.646 40.2715C169.124 40.3705 169.33 40.6791 169.263 41.1973C167.306 41.2485 165.352 41.1973 163.4 41.043C163.142 40.731 163.039 40.3709 163.091 39.9629C163.606 39.9629 164.12 39.9629 164.634 39.9629Z" fill="#98856A"/>
<path fill-rule="evenodd" clip-rule="evenodd" d="M142.416 40.5801C142.382 40.7705 142.279 40.9248 142.107 41.043C142.82 41.1963 143.54 41.2476 144.268 41.1973C142.75 41.4793 141.207 41.7879 139.639 42.123C140.222 41.8694 140.839 41.6123 141.49 41.3516C141.109 41.28 140.8 41.1257 140.564 40.8887C141.202 40.8834 141.819 40.7807 142.416 40.5801Z" fill="#8A7E6A"/>
<path fill-rule="evenodd" clip-rule="evenodd" d="M104.459 40.2715C105.018 40.2937 105.429 40.5508 105.693 41.043C106.228 41.9558 106.537 42.9331 106.619 43.9746C105.591 43.6225 104.665 43.0569 103.842 42.2773C101.735 41.7145 100.758 42.486 100.91 44.5918C101.243 45.175 101.757 45.4836 102.453 45.5176C104.171 45.0621 105.869 45.1136 107.545 45.6719C109.263 47.2417 109.52 49.0417 108.316 51.0723C107.708 51.3207 107.245 51.7323 106.928 52.3066C105.415 53.0497 103.872 53.6669 102.299 54.1582C101.506 53.0124 100.888 51.778 100.447 50.4551C100.772 50.4091 101.081 50.4603 101.373 50.6094C102.285 52.1798 103.622 52.6939 105.385 52.1523C106.967 51.2846 107.276 50.1017 106.311 48.6035C104.364 48.4273 102.41 48.3758 100.447 48.4492C98.3899 46.2891 98.3899 44.1289 100.447 41.9688C101.791 41.2775 103.128 40.7118 104.459 40.2715Z" fill="#BD913A"/>
<path fill-rule="evenodd" clip-rule="evenodd" d="M127.295 43.0488C128.079 43.1568 128.799 43.1568 129.455 43.0488C129.446 43.3565 129.6 43.5623 129.918 43.666C130.463 43.4398 131.029 43.3367 131.615 43.3574C130.027 43.8524 128.381 44.2641 126.678 44.5918C127.259 44.2057 127.876 43.8456 128.529 43.5117C128.049 43.4469 127.637 43.2926 127.295 43.0488Z" fill="#918774"/>
<path fill-rule="evenodd" clip-rule="evenodd" d="M91.189 56.3184C91.1381 55.387 91.1896 54.4612 91.3433 53.541C91.4149 53.9227 91.5692 54.2313 91.8062 54.4668C91.7658 54.7371 91.8685 54.943 92.1148 55.084C92.8172 54.3282 93.6399 53.7626 94.5836 53.3867C93.6235 52.6063 92.6977 51.8348 91.8062 51.0723C91.7189 50.8288 91.5646 50.623 91.3433 50.4551C91.2406 51.0723 91.1375 51.6895 91.0347 52.3066C90.9054 51.1056 90.6484 49.9743 90.2632 48.9121C90.2108 47.9891 90.6221 47.3719 91.4976 47.0605C94.0281 49.2327 96.4968 51.4441 98.9039 53.6953C99.6889 54.0323 100.512 54.2381 101.373 54.3125C99.8509 55.5046 98.2564 56.5847 96.5894 57.5527C96.4351 57.45 96.2808 57.3469 96.1265 57.2441C97.4661 55.7274 97.106 54.6986 95.0464 54.1582C93.929 54.6384 92.9517 55.3071 92.1148 56.1641C92.3391 56.8195 92.545 57.4882 92.732 58.1699C93.1967 58.5547 93.6596 58.5547 94.1207 58.1699C94.3342 58.3319 94.4885 58.5378 94.5836 58.7871C93.4285 59.7379 92.1941 60.5606 90.8804 61.2559C90.4962 60.8069 90.5478 60.3952 91.0347 60.0215C91.1887 58.7914 91.2402 57.5571 91.189 56.3184Z" fill="#BF923A"/>
<path fill-rule="evenodd" clip-rule="evenodd" d="M217.096 47.6777C217.486 47.9906 217.692 48.4535 217.713 49.0664C217.719 49.9937 217.513 50.868 217.096 51.6895C216.201 51.3984 215.481 50.884 214.936 50.1465C215.769 49.4167 216.489 48.5936 217.096 47.6777Z" fill="#DEDBD7"/>
<path fill-rule="evenodd" clip-rule="evenodd" d="M91.8065 51.0723C92.6981 51.8348 93.6238 52.6063 94.5839 53.3867C93.6402 53.7626 92.8175 54.3282 92.1151 55.084C91.8689 54.943 91.7661 54.7371 91.8065 54.4668C91.5489 53.2818 91.5489 52.1505 91.8065 51.0723Z" fill="#E2E1DD"/>
<path fill-rule="evenodd" clip-rule="evenodd" d="M221.416 59.4043C221.416 58.6843 221.416 57.9641 221.416 57.2441C222.026 55.8663 222.952 55.6604 224.193 56.627C224.542 57.1127 224.594 57.6271 224.348 58.1699C223.782 58.6328 223.216 59.0957 222.65 59.5586C223.103 60.2332 223.72 60.4387 224.502 60.1758C226.085 57.9891 227.473 55.6746 228.668 53.2324C228.927 52.4177 228.773 51.6978 228.205 51.0723C228.308 50.9695 228.411 50.8664 228.514 50.7637C229.706 51.6163 230.941 52.3878 232.217 53.0781C232.583 53.3926 232.892 53.7527 233.143 54.1582C232.292 54.3214 231.52 54.63 230.828 55.084C229.905 57.708 228.414 59.9196 226.354 61.7188C224.092 62.1816 222.446 61.4102 221.416 59.4043Z" fill="#BE923B"/>
<path fill-rule="evenodd" clip-rule="evenodd" d="M90.2637 48.9121C90.6488 49.9743 90.9059 51.1056 91.0352 52.3066C91.1379 51.6895 91.241 51.0723 91.3438 50.4551C91.565 50.623 91.7193 50.8288 91.8066 51.0723C91.549 52.1505 91.549 53.2818 91.8066 54.4668C91.5696 54.2313 91.4153 53.9227 91.3438 53.541C91.1901 54.4612 91.1385 55.387 91.1895 56.3184C90.8824 53.8894 90.5738 51.4207 90.2637 48.9121Z" fill="#998051"/>
<path fill-rule="evenodd" clip-rule="evenodd" d="M84.0918 51.6895C85.1296 52.257 85.8495 53.1312 86.252 54.3125C86.1492 54.4668 86.0461 54.6211 85.9434 54.7754C84.5714 53.6339 83.2342 53.6339 81.9316 54.7754C83.5774 57.2441 85.2234 59.7129 86.8691 62.1816C87.5804 62.2409 88.3004 62.344 89.0293 62.4902C87.3897 63.6922 85.7952 64.9266 84.2461 66.1934C84.0918 66.0906 83.9375 65.9875 83.7832 65.8848C84.4769 64.922 84.5281 63.8934 83.9375 62.7988C82.729 61.1028 81.5977 59.354 80.543 57.5527C79.823 56.3184 79.1028 56.3184 78.3828 57.5527C78.8219 61.6308 78.1532 61.8882 76.377 58.3242C76.5624 57.8289 76.871 57.4176 77.3027 57.0898C79.7258 55.4324 81.9887 53.6324 84.0918 51.6895Z" fill="#BE913C"/>
<path fill-rule="evenodd" clip-rule="evenodd" d="M217.096 52.6152C217.448 53.5842 217.499 54.6128 217.25 55.7012C216.661 55.7546 216.095 55.8576 215.553 56.0098C215.385 55.9913 215.282 55.8885 215.244 55.7012C215.829 55.4031 216.446 55.3003 217.096 55.3926C217.096 54.4668 217.096 53.541 217.096 52.6152Z" fill="#917B60"/>
<path fill-rule="evenodd" clip-rule="evenodd" d="M219.873 57.2441C220.176 57.4419 220.485 57.6475 220.799 57.8613C221.009 57.632 221.215 57.4265 221.416 57.2441C221.416 57.9641 221.416 58.6843 221.416 59.4043C221.179 59.1688 221.025 58.8602 220.953 58.4785C220.554 58.8769 220.195 58.8769 219.873 58.4785C220.101 58.5189 220.307 58.4674 220.49 58.3242C220.082 58.0724 219.876 57.7123 219.873 57.2441Z" fill="#9E8D77"/>
<path fill-rule="evenodd" clip-rule="evenodd" d="M238.697 58.4785C239.555 58.6501 240.069 59.1642 240.24 60.0215C239.635 62.8519 238.864 65.6292 237.926 68.3535C237.624 69.5641 237.778 70.6957 238.389 71.748C238.286 72.0566 238.08 72.2625 237.771 72.3652C236.306 71.0222 234.866 69.6851 233.451 68.3535C233.845 68.0002 234.256 68.0002 234.686 68.3535C235.551 67.5092 235.808 66.4804 235.457 65.2676C234.703 64.8118 234.034 64.2461 233.451 63.5703C232.574 63.6058 231.802 63.9659 231.137 64.6504C230.931 64.959 230.931 65.2676 231.137 65.5762C231.855 65.9505 231.957 66.3619 231.445 66.8105C230.252 65.9357 229.172 64.9584 228.205 63.8789C228.308 63.7246 228.411 63.5703 228.514 63.416C229.463 63.8409 230.389 63.7894 231.291 63.2617C233.738 61.5793 236.206 59.9848 238.697 58.4785Z" fill="#BC903C"/>
<path fill-rule="evenodd" clip-rule="evenodd" d="M74.834 59.4043C75.1043 59.3639 75.3101 59.4666 75.4512 59.7129C74.9093 60.2347 74.755 60.8519 74.9883 61.5645C76.4285 63.6219 77.8684 65.6789 79.3086 67.7363C79.9752 68.5328 80.6436 68.5328 81.3145 67.7363C81.623 67.8391 81.8289 68.0449 81.9316 68.3535C80.2736 69.6941 78.6278 71.0312 76.9941 72.3652C76.8914 72.2625 76.7883 72.1594 76.6855 72.0567C77.6166 71.2355 77.7709 70.3097 77.1484 69.2793C75.7696 67.1907 74.2782 65.1849 72.6738 63.2617C72.0298 63.329 71.4126 63.2775 70.8223 63.1074C72.1659 61.8663 73.503 60.6319 74.834 59.4043Z" fill="#C09239"/>
<path fill-rule="evenodd" clip-rule="evenodd" d="M236.537 60.9473C236.807 60.9069 237.013 61.0096 237.154 61.2559C236.775 62.4137 236.364 63.545 235.92 64.6504C235.096 64.2931 234.478 63.7274 234.068 62.9531C234.827 62.2128 235.649 61.5441 236.537 60.9473Z" fill="#E8E5E3"/>
<path fill-rule="evenodd" clip-rule="evenodd" d="M68.0449 65.2676C68.9371 66.0033 69.8113 66.8263 70.668 67.7363C70.8837 68.2221 70.7806 68.6334 70.3594 68.9707C69.0787 68.0455 67.69 67.8397 66.1934 68.3535C65.5262 69.2694 65.4234 70.2464 65.8848 71.2852C66.502 71.491 67.1191 71.491 67.7363 71.2852C68.9716 70.5899 70.2575 70.0242 71.5938 69.5879C74.7423 70.4347 75.6681 72.389 74.3711 75.4512C73.5317 77.0099 72.2458 77.9872 70.5137 78.3828C70.3316 78.8485 70.1261 79.3114 69.8965 79.7715C68.6942 78.9364 67.8196 77.9079 67.2734 76.6855C67.8508 76.3251 68.3137 76.4794 68.6621 77.1484C71.6802 77.7357 73.1716 76.5525 73.1367 73.5996C72.3662 72.9892 71.4916 72.8349 70.5137 73.1367C66.364 76.2168 64.1523 75.2395 63.8789 70.2051C64.6939 68.6186 65.8767 67.3842 67.4277 66.502C67.6937 66.1113 67.8996 65.6999 68.0449 65.2676Z" fill="#BD913B"/>
<path fill-rule="evenodd" clip-rule="evenodd" d="M251.658 70.8223C252.24 71.0944 252.651 71.5573 252.893 72.2109C251.727 75.6743 250.389 79.0688 248.881 82.3945C249.113 83.0592 249.164 83.7277 249.035 84.4004C247.514 83.0873 246.228 81.5959 245.178 79.9258C245.28 79.7715 245.384 79.6172 245.486 79.4629C245.846 79.7687 246.206 80.0773 246.566 80.3887C246.721 80.2859 246.875 80.1828 247.029 80.0801C248.094 77.7783 247.476 76.0298 245.178 74.834C243.478 75.2469 243.067 76.1727 243.943 77.6113C243.789 77.7141 243.635 77.8172 243.48 77.9199C242.401 76.9528 241.424 75.8727 240.549 74.6797C240.652 74.5254 240.755 74.3711 240.857 74.2168C241.486 74.7862 242.206 74.9404 243.018 74.6797C245.944 73.3901 248.824 72.1045 251.658 70.8223Z" fill="#BD913C"/>
<path fill-rule="evenodd" clip-rule="evenodd" d="M248.572 72.9824C248.881 72.9824 249.189 72.9824 249.498 72.9824C249.549 74.4057 249.035 75.5373 247.955 76.377C247.297 75.886 246.783 75.2688 246.412 74.5254C247.059 73.8746 247.779 73.3601 248.572 72.9824Z" fill="#DFDBD5"/>
<path fill-rule="evenodd" clip-rule="evenodd" d="M257.213 77.9199C257.79 78.0307 258.253 78.3393 258.602 78.8457C259.413 80.0076 260.185 81.1904 260.916 82.3945C260.813 82.5488 260.71 82.7031 260.607 82.8574C260.205 81.969 259.588 81.7635 258.756 82.2402C256.907 84.0372 255.004 85.7857 253.047 87.4863C253.033 88.9447 253.702 90.0248 255.053 90.7266C256.117 90.7806 257.146 90.8321 258.139 90.8809C257.318 91.648 256.444 92.3683 255.516 93.041C253.332 90.5883 251.326 87.9653 249.498 85.1719C249.601 85.0176 249.704 84.8633 249.807 84.709C250.229 85.2101 250.744 85.3644 251.35 85.1719C253.326 83.3357 255.332 81.5354 257.367 79.7715C257.518 79.1404 257.467 78.5232 257.213 77.9199Z" fill="#C09238"/>
<path fill-rule="evenodd" clip-rule="evenodd" d="M62.4902 80.08C62.3227 80.0985 62.2199 80.2013 62.1816 80.3886C64.4594 80.4984 66.6195 80.807 68.6621 81.3144C67.9397 81.9797 67.3225 82.7512 66.8105 83.6288C65.4484 83.4193 64.0597 83.265 62.6445 83.1659C61.9758 83.2687 61.3074 83.3717 60.6387 83.4745C61.5 84.1809 62.323 84.9524 63.1074 85.789C63.7135 85.9815 64.2279 85.8272 64.6504 85.3261C64.8997 85.4211 65.1056 85.5754 65.2676 85.789C63.9428 87.2619 62.6569 88.7533 61.4102 90.2636C61.2559 90.1608 61.1016 90.0577 60.9473 89.955C61.4963 89.4325 61.6506 88.8153 61.4102 88.1034C59.5246 85.9078 57.3645 84.0562 54.9297 82.5487C54.5085 82.6549 54.1483 82.8607 53.8496 83.1659C53.7468 83.0116 53.6438 82.8573 53.541 82.703C55.155 80.2642 57.0065 78.0013 59.0957 75.914C62.3282 75.5973 63.4595 76.986 62.4902 80.08Z" fill="#C29337"/>
<path fill-rule="evenodd" clip-rule="evenodd" d="M57.8613 78.2285C58.5106 78.1363 59.1278 78.239 59.7129 78.5371C61.1124 79.6947 61.3182 81.0833 60.3301 82.7031C60.1242 82.909 59.9187 82.909 59.7129 82.7031C58.5584 81.6582 57.5811 80.5782 56.7812 79.4629C57.2059 79.0911 57.5657 78.6797 57.8613 78.2285Z" fill="#EAE8E5"/>
<path fill-rule="evenodd" clip-rule="evenodd" d="M62.4902 80.0801C64.5553 80.48 66.664 80.48 68.8164 80.0801C69.2929 80.493 69.2413 80.9043 68.6621 81.3145C66.6195 80.8071 64.4594 80.4985 62.1816 80.3887C62.2199 80.2014 62.3227 80.0986 62.4902 80.0801Z" fill="#A0937C"/>
<path fill-rule="evenodd" clip-rule="evenodd" d="M264.311 87.7948C264.618 87.7683 264.875 87.8714 265.082 88.1034C265.907 89.5915 266.781 91.0317 267.705 92.4238C267.42 93.1486 267.111 93.0974 266.779 92.2695C266.368 92.0636 265.956 92.0636 265.545 92.2695C263.429 93.863 261.423 95.5603 259.527 97.3613C259.273 98.0405 259.427 98.6061 259.99 99.0585C259.828 99.2721 259.622 99.4264 259.373 99.5214C258.215 97.7186 256.98 95.9698 255.67 94.2753C255.824 94.1726 255.979 94.0695 256.133 93.9667C256.647 94.2753 257.161 94.5839 257.676 94.8925C259.83 93.1514 261.99 91.4026 264.156 89.6464C264.309 89.0376 264.361 88.4204 264.311 87.7948Z" fill="#C09339"/>
<path fill-rule="evenodd" clip-rule="evenodd" d="M51.3809 85.3262C52.5962 85.6169 53.4192 86.3368 53.8497 87.4863C52.9017 87.3885 51.9759 87.4913 51.0723 87.7949C50.4036 88.5139 49.8892 89.337 49.5294 90.2637C50.4089 91.4712 51.5405 92.2939 52.9239 92.7324C53.052 92.039 53.2578 91.3703 53.5411 90.7266C53.4667 90.1143 53.2609 89.5487 52.9239 89.0293C53.0267 88.9265 53.1297 88.8235 53.2325 88.7207C54.4613 89.5391 55.5929 90.4649 56.627 91.498C52.4601 92.2748 52.2546 93.6634 56.0098 95.6641C56.3184 95.8699 56.627 95.8699 56.9356 95.6641C58.1148 94.4976 58.6807 93.1089 58.6329 91.498C58.0481 90.8343 57.8938 90.1143 58.17 89.3379C58.885 89.8983 59.5537 90.5155 60.1759 91.1895C60.3817 91.498 60.3817 91.8066 60.1759 92.1152C58.3795 94.8824 56.5795 97.6597 54.7755 100.447C54.6727 100.241 54.5696 100.036 54.4669 99.8301C54.6693 99.2274 54.7721 98.6102 54.7755 97.9785C52.6323 96.7963 50.678 95.3049 48.9122 93.5039C48.0336 93.2126 47.2621 93.3669 46.5977 93.9668C46.3919 93.5554 46.3919 93.1438 46.5977 92.7324C48.2756 90.2985 49.8701 87.8298 51.3809 85.3262Z" fill="#BD913A"/>
<path fill-rule="evenodd" clip-rule="evenodd" d="M51.6895 107.236C51.3571 107.396 50.997 107.499 50.6094 107.545C48.7254 107.151 46.8226 106.945 44.9004 106.928C43.4719 106.625 42.0317 106.573 40.5801 106.773C40.2274 107.706 39.8157 107.757 39.3457 106.928C40.1487 105.017 41.1772 103.268 42.4316 101.682C42.6779 101.823 42.7807 102.029 42.7402 102.299C42.4468 102.737 42.344 103.251 42.4316 103.842C44.493 104.099 46.5501 104.408 48.6035 104.768C49.0149 104.665 49.4265 104.562 49.8379 104.459C49.7996 104.272 49.6969 104.169 49.5293 104.15C48.3856 102.231 47.0485 100.431 45.5176 98.75C44.8408 99.0493 44.1206 99.2552 43.3574 99.3672C44.0641 97.9011 44.8871 96.5124 45.8262 95.2012C46.0335 96.2495 46.2906 97.278 46.5977 98.2871C48.3736 100.913 50.2252 103.485 52.1523 106.002C52.3017 106.524 52.1474 106.936 51.6895 107.236Z" fill="#BE913A"/>
<path fill-rule="evenodd" clip-rule="evenodd" d="M42.7402 102.299C42.7402 102.71 42.7402 103.122 42.7402 103.533C44.71 103.721 46.6646 104.03 48.6035 104.459C48.9818 104.453 49.2904 104.35 49.5293 104.15C49.6968 104.169 49.7996 104.272 49.8379 104.459C49.4265 104.562 49.0148 104.665 48.6035 104.768C46.5501 104.408 44.493 104.099 42.4316 103.842C42.344 103.251 42.4467 102.737 42.7402 102.299Z" fill="#A0917D"/>
<path fill-rule="evenodd" clip-rule="evenodd" d="M44.9004 106.928C46.8226 106.945 48.7254 107.151 50.6094 107.545C50.997 107.499 51.3571 107.396 51.6895 107.236C51.4321 107.621 51.0207 107.827 50.4551 107.854C48.5359 107.692 46.6844 107.384 44.9004 106.928Z" fill="#998562"/>
<path fill-rule="evenodd" clip-rule="evenodd" d="M270.791 98.9042C271.098 98.8777 271.355 98.9808 271.562 99.2128C272.454 100.858 273.225 102.556 273.877 104.305C273.774 104.459 273.671 104.613 273.568 104.768C273.127 104.325 272.613 104.016 272.025 103.842C271.028 104.22 270.103 104.735 269.248 105.385C269.746 106.741 270.364 108.027 271.1 109.242C272.145 109.075 273.174 108.818 274.186 108.471C274.089 107.623 274.192 106.8 274.494 106.002C275.578 107.758 276.504 109.609 277.271 111.557C277.117 111.659 276.963 111.762 276.809 111.865C276.458 111.469 276.047 111.161 275.574 110.939C274.843 111.315 274.072 111.572 273.26 111.711C271.352 112.717 269.603 113.951 268.014 115.414C268.425 115.928 268.425 116.443 268.014 116.957C268.425 117.577 268.939 118.091 269.557 118.5C272.931 119.025 276.326 119.334 279.74 119.426C280.071 119.831 280.277 120.294 280.357 120.814C277.704 123.313 275.081 125.885 272.488 128.529C272.336 129.138 272.284 129.755 272.334 130.381C272.025 130.381 271.717 130.381 271.408 130.381C271.068 128.458 270.554 126.555 269.865 124.672C270.555 124.164 270.864 124.421 270.791 125.443C271.996 125.164 272.819 124.444 273.26 123.283C273.097 122.332 272.84 121.407 272.488 120.506C271.726 119.893 270.852 119.738 269.865 120.043C269.679 120.606 269.473 121.172 269.248 121.74C268.068 118.254 266.731 114.808 265.236 111.402C265.339 111.248 265.442 111.094 265.545 110.939C265.827 111.195 266.033 111.503 266.162 111.865C266.54 112.209 266.951 112.26 267.396 112.019C268.303 111.345 269.228 110.727 270.174 110.168C269.5 108.812 268.985 107.423 268.631 106.002C266.235 106.318 264.898 107.655 264.619 110.014C263.786 108.143 262.86 106.292 261.842 104.459C262.343 104.158 262.754 104.312 263.076 104.922C263.385 105.128 263.693 105.128 264.002 104.922C266.112 103.609 268.272 102.375 270.482 101.219C270.771 100.484 270.874 99.7124 270.791 98.9042Z" fill="#BE913C"/>
<path fill-rule="evenodd" clip-rule="evenodd" d="M38.7285 109.088C39.0371 109.088 39.3457 109.088 39.6543 109.088C39.5753 109.795 39.6781 110.464 39.9629 111.094C42.2437 111.977 44.4039 113.109 46.4434 114.488C46.752 114.694 47.0605 114.694 47.3691 114.488C47.7475 113.984 48.1588 113.521 48.6035 113.1C48.9473 113.477 48.9988 113.888 48.7578 114.334C48.0607 116.112 47.2892 117.861 46.4434 119.58C46.1348 119.477 45.9289 119.271 45.8262 118.963C46.2172 118.386 46.2172 117.82 45.8262 117.266C43.3741 116.245 41.0084 115.063 38.7285 113.717C38.037 113.893 37.5225 114.304 37.1855 114.951C37.0828 114.797 36.9797 114.643 36.877 114.488C37.4661 112.669 38.0832 110.869 38.7285 109.088Z" fill="#BD913F"/>
<path fill-rule="evenodd" clip-rule="evenodd" d="M273.26 120.506C277.317 119.75 277.625 120.47 274.186 122.666C273.763 121.967 273.454 121.248 273.26 120.506Z" fill="#EAEAE9"/>
<path fill-rule="evenodd" clip-rule="evenodd" d="M35.9512 116.803C36.2598 116.803 36.5684 116.803 36.877 116.803C36.7942 117.611 36.897 118.382 37.1855 119.117C40.0638 120.194 42.9439 121.171 45.8262 122.049C45.8061 122.727 45.6003 123.344 45.209 123.9C42.2607 125.22 39.2778 126.455 36.2598 127.604C36.81 128.138 37.4272 128.601 38.1113 128.992C39.2071 129.207 40.2872 129.464 41.3516 129.764C42.24 129.903 42.8057 129.543 43.0488 128.684C43.3414 128.535 43.65 128.483 43.9746 128.529C43.5577 130.197 43.1463 131.843 42.7402 133.467C42.4316 133.467 42.123 133.467 41.8145 133.467C41.9095 132.719 41.8064 131.999 41.5059 131.307C39.3411 130.353 37.1297 129.53 34.8711 128.838C33.9462 129.211 33.0717 129.623 32.248 130.072C32.5934 128.623 33.005 127.183 33.4824 125.752C36.1718 124.568 38.8461 123.385 41.5059 122.203C39.8043 121.109 37.9527 120.595 35.9512 120.66C35.6929 120.972 35.5901 121.332 35.6426 121.74C35.334 121.74 35.0254 121.74 34.7168 121.74C35.309 120.143 35.7207 118.497 35.9512 116.803Z" fill="#BA9041"/>
<path fill-rule="evenodd" clip-rule="evenodd" d="M282.827 132.85C282.912 134.101 283.118 135.336 283.444 136.553C283.43 136.835 283.328 137.041 283.135 137.17C282.847 136.84 282.744 136.429 282.827 135.936C280.819 136.155 278.864 136.618 276.963 137.324C276.038 137.53 275.112 137.53 274.186 137.324C272.082 135.84 271.31 133.835 271.871 131.307C272.946 129.645 274.181 129.439 275.575 130.689C275.875 132.932 275.001 133.549 272.952 132.541C272.557 133.227 272.659 133.844 273.26 134.393C273.723 134.495 274.186 134.598 274.649 134.701C276.936 134.102 279.25 133.537 281.592 133.004C281.877 132.374 281.98 131.705 281.901 130.998C282.209 130.998 282.518 130.998 282.827 130.998C282.827 131.615 282.827 132.232 282.827 132.85Z" fill="#BF9239"/>
<path fill-rule="evenodd" clip-rule="evenodd" d="M282.826 132.85C283.588 134.298 283.793 135.84 283.443 137.479C283.256 137.44 283.153 137.337 283.135 137.17C283.327 137.041 283.43 136.835 283.443 136.553C283.117 135.336 282.912 134.101 282.826 132.85Z" fill="#98886E"/>
<path fill-rule="evenodd" clip-rule="evenodd" d="M41.5059 141.182C41.5568 140.25 41.5052 139.325 41.3516 138.404C41.2488 139.124 41.1457 139.845 41.043 140.564C40.9248 140.736 40.7705 140.839 40.5801 140.873C40.8563 139.226 40.4449 137.837 39.3457 136.707C37.0917 136.176 34.8285 136.022 32.5566 136.244C32.2912 136.994 31.7768 137.406 31.0137 137.479C31.3871 135.752 31.5929 134.003 31.6309 132.232C31.9395 132.232 32.248 132.232 32.5566 132.232C32.4193 133.117 32.6251 133.888 33.1738 134.547C34.9152 134.814 36.664 135.019 38.4199 135.164C41.4731 136.179 42.5017 138.185 41.5059 141.182Z" fill="#AB8849"/>
<path fill-rule="evenodd" clip-rule="evenodd" d="M41.5059 141.182C41.3442 142.688 40.7271 143.974 39.6544 145.039C37.1097 145.288 34.5894 145.134 32.0938 144.576C31.1384 144.451 30.5727 144.863 30.3966 145.811C30.0348 143.808 30.2406 141.853 31.0138 139.947C31.077 141.143 31.6942 141.657 32.8653 141.49C35.0279 142.289 37.2909 142.546 39.6544 142.262C39.826 142.144 39.9287 141.989 39.963 141.799C40.1688 141.49 40.3743 141.182 40.5802 140.873C40.7706 140.839 40.9249 140.736 41.0431 140.564C41.1458 139.845 41.2489 139.124 41.3517 138.404C41.5053 139.325 41.5569 140.25 41.5059 141.182Z" fill="#C09236"/>
<path fill-rule="evenodd" clip-rule="evenodd" d="M284.061 139.33C284.078 141.416 284.232 143.474 284.523 145.502C284.438 145.219 284.283 145.014 284.061 144.885C283.686 144.553 283.223 144.348 282.672 144.268C280.128 144.485 277.66 145 275.266 145.811C275.113 146.315 275.062 146.829 275.111 147.354C274.803 147.354 274.494 147.354 274.186 147.354C274.214 145.426 274.008 143.523 273.568 141.645C273.671 141.387 273.774 141.13 273.877 140.873C274.114 142.059 274.834 142.573 276.037 142.416C277.556 142.302 278.996 141.993 280.357 141.49C281.187 141.541 282.01 141.489 282.826 141.336C283.179 140.588 283.59 139.919 284.061 139.33Z" fill="#BF9136"/>
<path fill-rule="evenodd" clip-rule="evenodd" d="M32.8652 141.49C35.2251 142.025 37.5907 142.128 39.9629 141.799C39.9286 141.989 39.8259 142.144 39.6543 142.262C37.2908 142.546 35.0279 142.289 32.8652 141.49Z" fill="#9A907C"/>
<path fill-rule="evenodd" clip-rule="evenodd" d="M280.357 141.49C278.996 141.993 277.556 142.302 276.037 142.416C277.383 141.847 278.823 141.538 280.357 141.49Z" fill="#9D9384"/>
<path fill-rule="evenodd" clip-rule="evenodd" d="M284.061 139.33C284.542 141.424 284.85 143.584 284.986 145.811C284.678 145.811 284.369 145.811 284.061 145.811C284.061 145.502 284.061 145.193 284.061 144.885C284.283 145.014 284.438 145.219 284.523 145.502C284.232 143.474 284.078 141.416 284.061 139.33Z" fill="#988564"/>
<path fill-rule="evenodd" clip-rule="evenodd" d="M33.4827 151.674C33.8907 151.621 34.2508 151.724 34.5628 151.983C34.9381 153.248 35.401 154.482 35.9515 155.686C37.5877 155.941 39.2337 156.096 40.889 156.149C41.03 156.276 41.1331 156.431 41.1976 156.611C39.962 157.587 38.6764 158.513 37.3402 159.389C37.6954 160.83 38.1582 162.27 38.7288 163.709C38.4671 164.259 38.0558 164.414 37.4945 164.172C36.4381 163.207 35.255 162.435 33.9456 161.858C32.5807 162.769 31.1921 163.541 29.7796 164.172C29.6073 163.948 29.5044 163.691 29.471 163.401C30.0084 162.099 30.3684 160.761 30.5511 159.389C29.4445 158.707 28.3644 157.987 27.3109 157.229C27.0243 156.862 26.9214 156.45 27.0023 155.994C28.751 155.994 30.4997 155.994 32.2484 155.994C32.4739 154.495 32.8853 153.055 33.4827 151.674Z" fill="#433F18"/>
<path fill-rule="evenodd" clip-rule="evenodd" d="M280.358 151.674C280.769 151.674 281.181 151.674 281.592 151.674C281.942 153.135 282.354 154.576 282.827 155.994C284.476 155.943 286.121 155.994 287.764 156.148C287.905 156.276 288.008 156.43 288.073 156.611C286.837 157.587 285.551 158.513 284.215 159.389C284.459 160.816 284.922 162.204 285.604 163.555C285.569 163.95 285.363 164.207 284.987 164.326C283.642 163.492 282.305 162.669 280.975 161.857C279.468 162.613 278.028 163.385 276.655 164.172C276.482 163.948 276.379 163.691 276.346 163.4C276.812 162.059 277.172 160.722 277.426 159.389C276.578 158.784 275.704 158.219 274.803 157.691C274.153 157.301 273.844 156.736 273.877 155.994C275.626 155.994 277.375 155.994 279.123 155.994C279.389 154.501 279.801 153.061 280.358 151.674Z" fill="#423F17"/>
<path fill-rule="evenodd" clip-rule="evenodd" d="M33.791 153.525C34.4486 154.513 34.9631 155.593 35.334 156.766C36.5684 156.868 37.8027 156.971 39.0371 157.074C37.9728 157.705 37.047 158.476 36.2598 159.389C36.4264 160.364 36.735 161.29 37.1855 162.166C37.0828 162.269 36.9797 162.372 36.877 162.475C35.9379 161.792 34.9606 161.175 33.9453 160.623C32.93 161.175 31.9527 161.792 31.0137 162.475C30.9109 162.423 30.8079 162.372 30.7051 162.32C31.1562 161.366 31.5679 160.388 31.9395 159.389C30.9779 158.546 29.9492 157.774 28.8535 157.074C30.1868 156.92 31.5241 156.869 32.8652 156.92C33.1124 155.767 33.421 154.636 33.791 153.525Z" fill="#C69432"/>
<path fill-rule="evenodd" clip-rule="evenodd" d="M280.666 153.834C281.262 154.732 281.777 155.709 282.209 156.766C283.443 156.868 284.678 156.971 285.912 157.074C284.848 157.705 283.922 158.476 283.135 159.389C283.382 160.335 283.691 161.261 284.061 162.166C283.958 162.269 283.855 162.372 283.752 162.475C282.826 161.857 281.9 161.24 280.975 160.623C279.971 161.202 278.994 161.819 278.043 162.475C277.945 161.375 278.203 160.346 278.814 159.389C277.924 158.449 276.896 157.677 275.729 157.074C277.077 157.021 278.415 156.867 279.74 156.611C280.003 155.663 280.311 154.737 280.666 153.834Z" fill="#C69532"/>
<path fill-rule="evenodd" clip-rule="evenodd" d="M0.462891 145.193C0.21658 150.95 0.113716 156.711 0.154297 162.475C0.0514324 162.475 -0.0514324 162.475 -0.154297 162.475C-0.154297 157.846 -0.154297 153.217 -0.154297 148.588C0.0514324 147.456 0.257161 146.325 0.462891 145.193Z" fill="#84B8E1"/>
<path fill-rule="evenodd" clip-rule="evenodd" d="M150.131 47.6778C189.234 46.378 220.968 60.8819 245.332 91.1896C266.688 120.621 272.758 153.023 263.54 188.397C251.542 226.008 226.803 251.055 189.323 263.539C154.605 273.183 122.511 267.834 93.0415 247.492C62.0059 223.902 46.7305 192.477 47.2153 153.217C49.9081 115.159 67.035 85.5852 98.5961 64.4962C114.377 54.7273 131.555 49.1211 150.131 47.6778Z" fill="#C79A3F"/>
<path fill-rule="evenodd" clip-rule="evenodd" d="M169.264 50.1466C170.78 50.104 172.22 50.3095 173.584 50.7638C172.075 50.7539 170.635 50.5481 169.264 50.1466Z" fill="#758A7A"/>
<path fill-rule="evenodd" clip-rule="evenodd" d="M169.263 50.1465C170.634 50.5479 172.074 50.7538 173.584 50.7636C202.046 55.4009 225.242 68.979 243.171 91.498C265.252 121.205 271.218 154.019 261.07 189.939C248.666 226.105 224.339 250.124 188.087 261.996C150.067 271.857 116.019 264.348 85.943 239.469C59.4854 214.969 47.2959 184.573 49.3746 148.279C53.9964 110.168 72.8721 81.5203 106.002 62.3359C125.789 51.9622 146.876 47.899 169.263 50.1465Z" fill="#0266CB"/>
<path fill-rule="evenodd" clip-rule="evenodd" d="M148.896 163.4C149.593 164.62 150.313 165.855 151.057 167.104C151.134 167.774 151.442 168.289 151.982 168.646C154.049 172.253 156.724 175.339 160.006 177.904C163.109 180.33 166.607 182.027 170.498 182.996C169.229 185.867 167.892 188.696 166.486 191.482C165.49 193.166 164.564 194.915 163.709 196.729C157.22 196.916 152.231 199.796 148.742 205.369C145.127 199.934 140.035 197.002 133.467 196.574C132.88 195.45 132.263 194.37 131.615 193.334C130.076 189.843 128.533 186.345 126.986 182.842C130.768 181.928 134.162 180.282 137.17 177.904C140.18 175.717 142.649 173.043 144.576 169.881C145.221 169.314 145.632 168.594 145.811 167.721C146.604 166.443 147.324 165.106 147.971 163.709C148.33 169.931 148.381 176.206 148.125 182.533C147.177 183.363 147.125 184.237 147.971 185.156C149.049 185.422 149.769 185.011 150.131 183.922C149.474 183.224 149.062 182.401 148.896 181.453C149.295 175.699 149.295 169.682 148.896 163.4Z" fill="#CB3333"/>
<path fill-rule="evenodd" clip-rule="evenodd" d="M148.897 163.4C149.295 169.682 149.295 175.699 148.897 181.453C149.062 182.401 149.474 183.224 150.131 183.922C149.769 185.011 149.049 185.422 147.971 185.156C147.125 184.237 147.177 183.363 148.125 182.533C148.381 176.206 148.33 169.931 147.971 163.709C148.241 162.782 148.549 162.679 148.897 163.4Z" fill="#1B120E"/>
<path fill-rule="evenodd" clip-rule="evenodd" d="M142.725 158.771C143.091 159.835 143.297 160.967 143.342 162.166C143.152 162.132 142.998 162.029 142.879 161.857C142.726 160.834 142.674 159.805 142.725 158.771Z" fill="#BDD464"/>
<path fill-rule="evenodd" clip-rule="evenodd" d="M151.365 105.693C151.57 106.917 151.672 108.152 151.674 109.396C151.468 115.98 151.263 122.563 151.057 129.146C150.955 121.276 151.057 113.458 151.365 105.693Z" fill="#0872AB"/>
<path fill-rule="evenodd" clip-rule="evenodd" d="M151.674 109.396C154.778 129.123 154.881 148.873 151.982 168.646C151.442 168.289 151.134 167.774 151.057 167.104C151.057 154.451 151.057 141.799 151.057 129.146C151.262 122.563 151.468 115.98 151.674 109.396Z" fill="#1569C7"/>
<path fill-rule="evenodd" clip-rule="evenodd" d="M145.502 93.6582C145.809 98.5417 145.912 103.479 145.811 108.471C145.605 104.562 145.399 100.653 145.193 96.7441C145.181 95.7008 145.284 94.6722 145.502 93.6582Z" fill="#1978AC"/>
<path fill-rule="evenodd" clip-rule="evenodd" d="M144.885 98.9043C144.978 100.228 144.772 101.463 144.268 102.607C144.335 101.31 144.54 100.075 144.885 98.9043Z" fill="#61999A"/>
<path fill-rule="evenodd" clip-rule="evenodd" d="M145.194 96.7441C145.4 100.653 145.605 104.562 145.811 108.471C145.811 128.221 145.811 147.971 145.811 167.721C145.632 168.594 145.221 169.314 144.577 169.881C144.214 167.301 143.803 164.729 143.342 162.166C143.297 160.967 143.091 159.835 142.725 158.771C141.127 139.995 141.641 121.274 144.268 102.607C144.773 101.463 144.978 100.228 144.885 98.9043C144.823 98.1482 144.926 97.4283 145.194 96.7441Z" fill="#1269C7"/>
<path fill-rule="evenodd" clip-rule="evenodd" d="M151.057 94.584C154.169 105.851 159.466 115.931 166.949 124.826C173.007 131.81 179.178 138.702 185.465 145.502C195.207 157.217 202.768 170.229 208.146 184.539C207.838 184.745 207.529 184.745 207.221 184.539C198.643 179.828 189.488 176.845 179.756 175.59C172.957 174.856 166.373 175.628 160.006 177.904C156.724 175.339 154.049 172.253 151.982 168.646C154.881 148.873 154.778 129.123 151.674 109.396C151.672 108.152 151.57 106.917 151.365 105.693C150.622 100.239 149.954 94.7873 149.359 89.3379C149.765 91.1679 150.331 92.9163 151.057 94.584Z" fill="#FDFD35"/>
<path fill-rule="evenodd" clip-rule="evenodd" d="M145.502 93.6582C145.284 94.6722 145.181 95.7008 145.193 96.7441C144.925 97.4283 144.822 98.1482 144.885 98.9043C144.54 100.075 144.335 101.31 144.268 102.607C141.641 121.274 141.127 139.995 142.725 158.771C142.674 159.805 142.725 160.834 142.879 161.857C142.997 162.029 143.151 162.132 143.342 162.166C143.803 164.729 144.214 167.301 144.576 169.881C142.649 173.043 140.18 175.717 137.17 177.904C125.237 173.748 113.201 173.439 101.064 176.979C100.431 176.948 99.9165 177.154 99.5215 177.596C93.499 179.436 87.6357 181.699 81.9316 184.385C81.6255 184.438 81.42 184.335 81.3145 184.076C87.2188 168.77 95.4996 154.883 106.156 142.416C112.729 135.123 119.415 127.922 126.215 120.814C133.441 112.536 139.099 103.278 143.188 93.041C144.248 90.1017 145.122 87.1185 145.811 84.0918C146.756 81.8529 147.374 79.487 147.662 76.9941C147.765 76.6855 147.868 76.377 147.971 76.0684C148.073 76.2227 148.177 76.377 148.279 76.5312C147.052 82.1924 146.126 87.9014 145.502 93.6582Z" fill="#FDFD34"/>
<path fill-rule="evenodd" clip-rule="evenodd" d="M146.119 75.4512C147.662 75.6555 149.205 75.7582 150.748 75.7598C151.057 82.031 151.159 88.306 151.057 94.584C150.331 92.9163 149.765 91.1679 149.359 89.3379C149.954 94.7873 150.622 100.239 151.365 105.693C151.057 113.458 150.954 121.276 151.057 129.146C151.057 141.799 151.057 154.451 151.057 167.104C150.313 165.855 149.593 164.62 148.896 163.4C148.549 162.679 148.241 162.782 147.971 163.709C147.324 165.106 146.604 166.443 145.811 167.721C145.811 147.971 145.811 128.221 145.811 108.471C145.912 103.479 145.809 98.5417 145.502 93.6582C146.126 87.9014 147.052 82.1924 148.279 76.5312C148.177 76.377 148.073 76.2227 147.971 76.0684C147.868 76.377 147.765 76.6855 147.662 76.9941C147.374 79.487 146.756 81.8529 145.811 84.0918C145.716 81.1858 145.819 78.3057 146.119 75.4512Z" fill="#089933"/>
<path fill-rule="evenodd" clip-rule="evenodd" d="M146.119 75.4512C145.819 78.3057 145.716 81.1858 145.811 84.0918C145.605 82.7068 145.502 81.2669 145.502 79.7715C145.504 78.2128 145.71 76.7729 146.119 75.4512Z" fill="#0275AE"/>
<path fill-rule="evenodd" clip-rule="evenodd" d="M40.8887 172.041C41.8114 175.158 42.1715 178.347 41.9688 181.607C41.3559 182.866 40.3786 183.328 39.0371 182.996C38.4329 182.148 37.8672 181.274 37.3398 180.373C37.3537 181.938 36.8908 183.326 35.9512 184.539C34.4971 184.984 33.3142 184.625 32.4023 183.459C31.3936 180.555 30.725 177.572 30.3965 174.51C31.0229 173.776 31.3315 173.982 31.3223 175.127C33.2587 174.733 35.213 174.424 37.1855 174.201C38.1181 174.107 39.0439 173.953 39.9629 173.738C40.0802 173.02 40.3887 172.455 40.8887 172.041Z" fill="#BF923B"/>
<path fill-rule="evenodd" clip-rule="evenodd" d="M40.8887 172.041C40.3887 172.455 40.0802 173.021 39.9629 173.738C39.0439 173.953 38.1181 174.107 37.1855 174.201C37.9191 173.773 38.7418 173.516 39.6543 173.43C39.9339 172.905 40.0366 172.34 39.9629 171.733C40.3613 171.659 40.6699 171.762 40.8887 172.041Z" fill="#9B8D76"/>
<path fill-rule="evenodd" clip-rule="evenodd" d="M38.1115 176.67C39.0373 176.67 39.9631 176.67 40.8889 176.67C41.1537 179.864 39.9705 180.584 37.3401 178.83C37.0055 177.855 37.2629 177.135 38.1115 176.67Z" fill="#EBE9E7"/>
<path fill-rule="evenodd" clip-rule="evenodd" d="M101.064 176.978C100.669 177.42 100.155 177.626 99.5215 177.596C99.9165 177.154 100.431 176.948 101.064 176.978Z" fill="#70A58E"/>
<path fill-rule="evenodd" clip-rule="evenodd" d="M283.135 181.607C283.135 180.99 282.826 180.682 282.209 180.682C282.768 179.623 282.923 178.492 282.672 177.287C282.385 176.654 281.922 176.191 281.283 175.898C279.468 175.602 277.668 175.241 275.883 174.818C274.569 174.538 274.003 175.053 274.186 176.361C273.877 176.361 273.568 176.361 273.26 176.361C273.317 174.593 273.522 172.844 273.877 171.115C274.186 171.115 274.494 171.115 274.803 171.115C274.698 171.935 274.904 172.655 275.42 173.275C277.362 173.768 279.317 174.231 281.283 174.664C284.061 176.45 284.678 178.764 283.135 181.607Z" fill="#B08B45"/>
<path fill-rule="evenodd" clip-rule="evenodd" d="M35.3341 177.596C36.2562 177.489 36.6676 177.901 36.5685 178.83C36.2781 180.82 35.1465 181.694 33.174 181.453C32.3312 180.559 32.0226 179.479 32.2482 178.213C33.3406 178.135 34.3692 177.929 35.3341 177.596Z" fill="#EEEDEC"/>
<path fill-rule="evenodd" clip-rule="evenodd" d="M282.209 180.682C282.826 180.682 283.135 180.99 283.135 181.607C282.78 182.84 282.059 183.765 280.975 184.385C278.543 184.115 276.126 183.703 273.723 183.15C273.392 183.159 273.135 183.262 272.951 183.459C272.663 183.789 272.56 184.2 272.643 184.693C272.334 184.693 272.025 184.693 271.717 184.693C272.224 182.676 272.533 180.619 272.643 178.521C272.951 178.521 273.26 178.521 273.568 178.521C273.568 179.139 273.568 179.756 273.568 180.373C275.733 180.537 277.842 180.948 279.895 181.607C280.872 181.729 281.644 181.42 282.209 180.682Z" fill="#C19338"/>
<path fill-rule="evenodd" clip-rule="evenodd" d="M272.951 183.459C273.135 183.262 273.392 183.159 273.723 183.15C276.126 183.703 278.543 184.115 280.975 184.385C280.109 184.736 279.184 184.787 278.197 184.539C276.475 184.04 274.726 183.68 272.951 183.459Z" fill="#948767"/>
<path fill-rule="evenodd" clip-rule="evenodd" d="M81.3145 184.076C81.42 184.335 81.6255 184.438 81.9316 184.385C81.6582 184.779 81.3496 184.779 81.0059 184.385C81.0441 184.197 81.1469 184.095 81.3145 184.076Z" fill="#77A685"/>
<path fill-rule="evenodd" clip-rule="evenodd" d="M43.3574 185.311C43.4728 186.687 43.7814 188.024 44.2832 189.322C44.2317 189.528 44.1804 189.734 44.1289 189.939C43.9743 188.68 43.5114 188.474 42.7402 189.322C41.7916 189.437 40.8658 189.643 39.9629 189.939C39.97 190.688 40.1243 191.408 40.4258 192.1C41.226 192.492 41.9974 192.903 42.7402 193.334C42.3807 193.668 41.9694 193.926 41.5059 194.105C40.3341 194.232 39.2025 194.489 38.1113 194.877C38.1613 194.16 38.5211 193.645 39.1914 193.334C39.5096 192.352 39.304 191.529 38.5742 190.865C37.5244 191.244 36.4443 191.449 35.334 191.482C34.6924 194.634 35.9268 196.383 39.0371 196.729C39.0371 197.037 39.0371 197.346 39.0371 197.654C37.9055 197.86 36.7742 198.066 35.6426 198.271C34.8338 194.638 33.908 191.038 32.8652 187.471C33.6108 187.613 34.1768 188.024 34.5625 188.705C37.2041 187.91 39.8271 187.087 42.4316 186.236C42.4316 185.619 42.4316 185.002 42.4316 184.385C42.7402 184.385 43.0488 184.385 43.3574 184.385C43.3574 184.693 43.3574 185.002 43.3574 185.311Z" fill="#BA903F"/>
<path fill-rule="evenodd" clip-rule="evenodd" d="M131.615 193.334C132.263 194.37 132.88 195.45 133.467 196.574C140.035 197.002 145.127 199.933 148.742 205.369C152.231 199.796 157.22 196.915 163.709 196.728C164.564 194.914 165.49 193.166 166.486 191.482C184.832 185.244 202.73 186.324 220.182 194.723C220.475 194.944 220.526 195.201 220.336 195.494C214.556 204.511 208.847 213.563 203.209 222.65C194.564 216.94 185.203 212.877 175.127 210.461C161.417 207.552 149.176 210.38 138.404 218.947C133.061 215.504 127.3 212.985 121.123 211.387C117.042 210.955 113.03 211.264 109.088 212.312C104.624 213.981 100.303 215.884 96.127 218.021C100.356 208.699 106.836 201.345 115.568 195.957C120.616 193.53 125.965 192.656 131.615 193.334Z" fill="#FCFDFE"/>
<path fill-rule="evenodd" clip-rule="evenodd" d="M43.3574 185.311C44.4502 188.298 45.2732 191.384 45.8262 194.568C44.9812 194.677 44.1585 194.883 43.3574 195.186C43.2547 195.031 43.1516 194.877 43.0488 194.723C43.6265 193.875 44.0382 192.949 44.2832 191.945C44.044 191.074 43.8382 190.2 43.666 189.322C43.3574 189.322 43.0488 189.322 42.7402 189.322C43.5114 188.474 43.9743 188.68 44.1289 189.939C44.1804 189.734 44.2317 189.528 44.2832 189.322C43.7814 188.024 43.4728 186.687 43.3574 185.311Z" fill="#AB8A50"/>
<path fill-rule="evenodd" clip-rule="evenodd" d="M275.728 194.877C275.896 194.895 275.998 194.998 276.037 195.186C273.568 195.391 271.099 195.597 268.63 195.803C268.494 196.185 268.288 196.494 268.013 196.729C267.989 196.287 268.092 195.876 268.322 195.494C270.839 195.288 273.308 195.083 275.728 194.877Z" fill="#907A47"/>
<path fill-rule="evenodd" clip-rule="evenodd" d="M278.814 197.963C275.521 197.911 272.229 197.963 268.939 198.117C269.267 198.484 269.679 198.638 270.174 198.58C272.051 199.38 273.954 200.1 275.883 200.74C276.243 200.689 276.603 200.637 276.963 200.586C277.274 199.916 277.789 199.556 278.506 199.506C277.906 201.084 277.494 202.73 277.271 204.443C276.963 204.443 276.654 204.443 276.346 204.443C276.534 203.19 276.122 202.212 275.111 201.512C273.019 200.927 270.962 200.259 268.939 199.506C268.189 199.486 267.623 199.795 267.242 200.432C267.088 200.329 266.934 200.226 266.779 200.123C267.145 198.963 267.557 197.832 268.014 196.729C268.289 196.494 268.494 196.185 268.631 195.803C271.1 195.597 273.568 195.391 276.037 195.186C275.999 194.998 275.896 194.895 275.729 194.877C273.931 193.131 272.079 191.434 270.174 189.785C270.669 188.13 271.286 186.536 272.025 185.002C272.189 185.853 272.497 186.624 272.951 187.316C274.985 187.965 276.939 188.788 278.814 189.785C279.527 189.939 280.247 189.99 280.975 189.939C280.975 189.631 280.975 189.322 280.975 189.014C281.337 188.946 281.646 189.049 281.9 189.322C281.336 191.167 280.77 193.019 280.203 194.877C280.075 195.018 279.921 195.121 279.74 195.186C279.534 194.466 279.329 193.745 279.123 193.025C276.441 192.017 273.869 190.937 271.408 189.785C273.928 192.1 276.448 194.414 278.969 196.729C279.205 197.212 279.153 197.623 278.814 197.963Z" fill="#BD913B"/>
<path fill-rule="evenodd" clip-rule="evenodd" d="M46.1348 196.111C46.4421 196.085 46.6992 196.188 46.9062 196.42C48.0224 198.27 48.5881 200.224 48.6035 202.283C48.1561 201.927 47.8475 201.464 47.6777 200.894C46.0422 200.99 44.602 201.608 43.3574 202.746C42.2095 203.059 41.0781 203.419 39.9629 203.826C39.3602 207.042 40.6977 208.585 43.9746 208.455C43.9746 208.764 43.9746 209.072 43.9746 209.381C42.8877 209.536 41.8077 209.742 40.7344 209.998C40.5801 209.895 40.4258 209.792 40.2715 209.689C39.0871 206.481 37.9558 203.292 36.877 200.123C37.6096 200.343 38.2267 200.755 38.7285 201.357C41.0445 200.148 43.4105 199.017 45.8262 197.963C46.1243 197.378 46.227 196.761 46.1348 196.111Z" fill="#BD913F"/>
<path fill-rule="evenodd" clip-rule="evenodd" d="M278.814 197.963C275.934 198.169 273.054 198.374 270.174 198.58C269.679 198.638 269.267 198.484 268.939 198.117C272.229 197.963 275.521 197.911 278.814 197.963Z" fill="#AEACA5"/>
<path fill-rule="evenodd" clip-rule="evenodd" d="M165.252 217.713C164.228 217.508 163.148 217.405 162.012 217.404C160.039 217.381 158.136 217.586 156.303 218.021C150.041 218.736 144.589 221.204 139.947 225.428C134.653 222.011 128.893 219.697 122.666 218.484C116.398 217.909 110.432 218.938 104.768 221.57C101.124 223.389 97.627 225.343 94.2754 227.434C98.3994 221.656 103.749 217.542 110.322 215.09C117.547 213.196 124.542 213.813 131.307 216.941C133.959 218.241 136.479 219.732 138.867 221.416C144.322 217.571 150.34 215.102 156.92 214.01C161.029 213.753 165.144 213.65 169.264 213.701C182.139 215.279 193.762 219.908 204.135 227.588C209.839 217.623 215.393 207.542 220.799 197.346C220.954 197.031 221.159 196.979 221.416 197.191C216.436 209.619 211.499 222.014 206.604 234.377C206.279 234.423 205.97 234.372 205.678 234.223C193.988 224.457 180.513 218.954 165.252 217.713Z" fill="#F5F9FC"/>
<path fill-rule="evenodd" clip-rule="evenodd" d="M265.854 201.975C269.542 202.824 269.542 203.647 265.854 204.443C265.442 205.369 265.03 206.295 264.619 207.221C265.583 208.037 266.664 208.654 267.859 209.072C268.915 207.773 268.863 206.538 267.705 205.369C268.404 205.151 269.124 205.203 269.865 205.523C270.447 206.259 271.167 206.824 272.025 207.221C271.205 207.455 270.383 207.661 269.557 207.838C268.698 208.86 268.801 209.734 269.865 210.461C270.624 210.764 271.396 211.021 272.18 211.232C273.687 210.054 274.15 208.511 273.568 206.604C273.455 206.168 273.198 205.86 272.797 205.678C272.556 205.232 272.607 204.821 272.951 204.443C273.704 205.25 274.578 205.867 275.574 206.295C275.78 206.706 275.78 207.118 275.574 207.529C274.051 210.327 272.765 213.207 271.717 216.17C271.354 216.238 271.046 216.135 270.791 215.861C271.095 215.368 271.146 214.854 270.945 214.318C270.051 213.412 268.971 212.846 267.705 212.621C266.521 211.978 265.39 211.258 264.311 210.461C263.865 210.22 263.454 210.271 263.076 210.615C262.795 211.638 262.384 211.741 261.842 210.924C263.334 207.997 264.671 205.014 265.854 201.975Z" fill="#BA9040"/>
<path fill-rule="evenodd" clip-rule="evenodd" d="M220.799 202.592C221.145 203.144 221.197 203.761 220.953 204.443C217.962 219.364 214.927 234.279 211.85 249.189C201.619 239.513 189.893 232.363 176.67 227.742C173.864 227.268 171.086 226.65 168.338 225.891C161.329 224.72 154.54 225.44 147.971 228.051C145.692 229.301 143.583 230.792 141.645 232.525C125.764 221.927 110.489 222.699 95.8184 234.84C95.5616 235.052 95.3561 235.001 95.2012 234.686C103.242 222.238 114.455 218.072 128.838 222.188C133.135 223.636 137.147 225.642 140.873 228.205C149.092 222.164 158.349 219.85 168.646 221.262C179.074 222.861 188.743 226.462 197.654 232.062C201.551 234.601 205.305 237.327 208.918 240.24C209.453 239.875 209.762 239.361 209.844 238.697C212.944 227.837 216.339 217.036 220.027 206.295C220.286 205.056 220.543 203.822 220.799 202.592Z" fill="#F5F9FC"/>
<path fill-rule="evenodd" clip-rule="evenodd" d="M53.541 211.541C53.1065 211.368 52.6436 211.265 52.1523 211.232C49.7385 211.493 47.321 211.699 44.9004 211.85C47.2494 211.362 49.6666 211.053 52.1523 210.924C52.7652 210.945 53.2281 211.151 53.541 211.541Z" fill="#B1ABA1"/>
<path fill-rule="evenodd" clip-rule="evenodd" d="M44.9004 211.85C47.321 211.699 49.7385 211.493 52.1523 211.232C52.6436 211.265 53.1065 211.368 53.541 211.541C53.957 211.858 54.1113 212.269 54.0039 212.775C52.0496 215.141 50.0949 217.507 48.1406 219.873C47.6503 220.963 47.2904 222.094 47.0605 223.268C46.2983 221.332 45.3725 219.48 44.2832 217.713C44.386 217.61 44.489 217.507 44.5918 217.404C45.0032 217.713 45.4148 218.022 45.8262 218.33C47.8385 216.685 47.8385 214.988 45.8262 213.238C44.0508 212.697 43.2281 213.366 43.3574 215.244C43.2547 215.193 43.1516 215.141 43.0488 215.09C42.5498 213.834 41.9326 212.651 41.1973 211.541C41.4454 210.783 41.754 210.783 42.123 211.541C43.0266 211.845 43.9524 211.947 44.9004 211.85Z" fill="#BE9139"/>
<path fill-rule="evenodd" clip-rule="evenodd" d="M46.752 212.467C47.9906 212.416 49.225 212.467 50.4551 212.621C49.7935 213.541 49.0732 214.415 48.2949 215.244C47.6395 214.387 47.125 213.461 46.752 212.467Z" fill="#E6E4E2"/>
<path fill-rule="evenodd" clip-rule="evenodd" d="M260.916 211.85C261.225 211.85 261.533 211.85 261.842 211.85C261.781 212.49 261.729 213.107 261.688 213.701C263.8 215.169 265.857 216.712 267.859 218.33C268.411 219.959 268.411 221.605 267.859 223.268C266.652 225.303 265.109 225.612 263.23 224.193C262.667 222.5 263.233 221.729 264.928 221.879C265.616 222.273 266.131 222.839 266.471 223.576C266.826 222.772 266.877 221.949 266.625 221.107C264.809 219.599 262.906 218.211 260.916 216.941C260.042 216.841 259.219 216.995 258.447 217.404C259.27 215.553 260.093 213.701 260.916 211.85Z" fill="#BE923C"/>
<path fill-rule="evenodd" clip-rule="evenodd" d="M169.264 213.701C165.144 213.65 161.029 213.753 156.92 214.01C159.267 213.539 161.685 213.333 164.172 213.393C165.924 213.393 167.621 213.496 169.264 213.701Z" fill="#96C2E7"/>
<path fill-rule="evenodd" clip-rule="evenodd" d="M165.252 217.713C162.264 217.703 159.281 217.806 156.303 218.021C158.136 217.586 160.039 217.38 162.012 217.404C163.148 217.404 164.228 217.508 165.252 217.713Z" fill="#65A3DF"/>
<path fill-rule="evenodd" clip-rule="evenodd" d="M58.1699 219.873C59.5246 221.444 60.656 223.193 61.5645 225.119C61.0636 225.42 60.6519 225.266 60.3301 224.656C60.0215 224.45 59.7129 224.45 59.4043 224.656C57.7012 225.95 56.0039 227.235 54.3125 228.514C51.0448 229.215 49.1417 227.878 48.6035 224.502C48.6711 223.045 49.4426 222.222 50.918 222.033C52.2159 222.35 52.6273 223.173 52.1523 224.502C51.4935 225.051 50.722 225.256 49.8379 225.119C50.202 226.711 51.1278 227.072 52.6152 226.199C54.4989 224.923 56.2989 223.534 58.0156 222.033C58.0601 221.254 58.1113 220.534 58.1699 219.873Z" fill="#BF923A"/>
<path fill-rule="evenodd" clip-rule="evenodd" d="M251.041 227.279C254.148 228.023 257.131 229.103 259.99 230.52C260.981 230.766 261.907 230.611 262.768 230.057C263.083 230.212 263.134 230.417 262.922 230.674C261.562 232.085 260.379 233.628 259.373 235.303C259.064 235.2 258.859 234.994 258.756 234.686C259.203 234.269 259.409 233.755 259.373 233.143C258.667 233.073 257.999 232.868 257.367 232.525C256.648 233.136 255.928 233.753 255.207 234.377C255.01 234.719 254.856 235.079 254.744 235.457C255.09 235.993 255.398 236.559 255.67 237.154C256.413 237.234 257.133 237.234 257.83 237.154C256.975 238.355 256.049 239.486 255.053 240.549C254.988 239.658 254.936 238.732 254.898 237.771C253.172 234.857 251.68 231.822 250.424 228.668C250.661 228.214 250.866 227.751 251.041 227.279Z" fill="#BD913C"/>
<path fill-rule="evenodd" clip-rule="evenodd" d="M64.959 229.439C65.6715 229.713 66.186 230.228 66.502 230.982C65.0334 233.817 63.6447 236.697 62.3359 239.623C61.8876 240.758 61.7333 241.889 61.873 243.018C61.3642 242.663 60.9013 242.252 60.4844 241.783C59.8298 240.526 59.0584 239.343 58.1699 238.234C58.2215 238.08 58.2727 237.926 58.3242 237.771C59.471 238.69 60.1909 238.381 60.4844 236.846C60.6328 235.539 60.1699 234.459 59.0957 233.605C58.1678 233.513 57.242 233.564 56.3184 233.76C56.2403 234.478 56.4461 235.095 56.9355 235.611C56.8405 235.861 56.6862 236.067 56.4727 236.229C55.6206 235.04 54.6948 233.909 53.6953 232.834C53.8052 232.058 54.1653 232.007 54.7754 232.68C55.3926 232.886 56.0098 232.886 56.627 232.68C58.7072 231.722 60.8673 231.002 63.1074 230.52C63.761 230.186 64.3782 229.826 64.959 229.439Z" fill="#BB903D"/>
<path fill-rule="evenodd" clip-rule="evenodd" d="M252.275 230.674C253.466 231.027 254.648 231.438 255.824 231.908C256.03 232.114 256.03 232.32 255.824 232.525C255.194 233.052 254.679 233.67 254.281 234.377C253.684 233.077 253.015 231.842 252.275 230.674Z" fill="#E1DEDA"/>
<path fill-rule="evenodd" clip-rule="evenodd" d="M61.873 231.6C62.1816 231.6 62.4902 231.6 62.7988 231.6C62.7917 232.972 62.2773 234.104 61.2559 234.994C60.6387 234.274 60.0215 233.554 59.4043 232.834C60.2215 232.359 61.0445 231.948 61.873 231.6Z" fill="#E0DCD8"/>
<path fill-rule="evenodd" clip-rule="evenodd" d="M72.3652 245.795C72.0363 245.427 71.7792 245.53 71.5938 246.104C71.4395 247.492 71.2852 248.881 71.1309 250.27C71.1333 250.796 71.2364 251.259 71.4395 251.658C72.0884 252.127 72.14 252.641 71.5938 253.201C70.7704 252.018 69.7931 250.989 68.6621 250.115C69.2842 247.878 69.3873 245.615 68.9707 243.326C68.5328 243.482 68.3273 243.791 68.3535 244.252C67.6746 244.831 67.1602 245.551 66.8105 246.412C67.175 246.936 67.175 247.451 66.8105 247.955C65.4762 246.528 64.1391 245.088 62.7988 243.635C62.9531 243.532 63.1074 243.429 63.2617 243.326C63.8166 243.636 64.3825 243.79 64.959 243.789C65.7191 242.72 66.5933 241.743 67.582 240.857C68.4051 239.829 69.2278 238.8 70.0508 237.771C70.0563 237.063 70.0048 236.342 69.8965 235.611C72.4529 237.398 74.5615 239.661 76.2227 242.4C76.4624 245.193 75.1765 246.325 72.3652 245.795Z" fill="#C0933A"/>
<path fill-rule="evenodd" clip-rule="evenodd" d="M72.3652 239.314C72.9426 239.425 73.4055 239.734 73.7539 240.24C74.1554 241.779 73.6925 242.962 72.3652 243.789C70.8676 244.138 70.0961 243.572 70.0508 242.092C70.9719 241.27 71.7434 240.345 72.3652 239.314Z" fill="#ECEAE8"/>
<path fill-rule="evenodd" clip-rule="evenodd" d="M245.178 235.92C251.531 236.535 253.28 239.775 250.424 245.641C248.936 247.488 247.29 249.186 245.486 250.732C245.384 250.63 245.28 250.527 245.178 250.424C245.72 249.902 245.874 249.285 245.641 248.572C244.05 246.468 242.353 244.462 240.549 242.555C239.837 242.314 239.22 242.469 238.697 243.018C238.389 242.915 238.183 242.709 238.08 242.4C240.167 239.9 242.533 237.74 245.178 235.92Z" fill="#C19339"/>
<path fill-rule="evenodd" clip-rule="evenodd" d="M243.326 238.08C247.785 238.372 249.894 240.738 249.652 245.178C248.8 246.647 247.823 246.75 246.721 245.486C245.181 243.535 243.535 241.684 241.783 239.932C242.303 239.293 242.818 238.675 243.326 238.08Z" fill="#F7F6F6"/>
<path fill-rule="evenodd" clip-rule="evenodd" d="M233.451 246.104C236.131 247.492 238.702 249.086 241.166 250.887C242.191 251.33 243.219 251.382 244.252 251.041C244.355 251.195 244.458 251.35 244.561 251.504C243.182 252.985 241.69 254.373 240.086 255.67C239.872 255.508 239.718 255.302 239.623 255.053C239.932 254.641 240.24 254.23 240.549 253.818C239.876 253.43 239.259 252.968 238.697 252.43C238.389 252.224 238.08 252.224 237.771 252.43C236.799 253.192 236.079 254.118 235.611 255.207C235.663 256.974 236.383 257.437 237.771 256.596C238.106 256.863 238.157 257.171 237.926 257.521C236.894 258.349 235.865 259.172 234.84 259.99C234.364 259.658 234.364 259.246 234.84 258.756C235.046 257.83 235.046 256.904 234.84 255.979C234.101 253.097 233.33 250.217 232.525 247.338C232.768 246.862 233.077 246.451 233.451 246.104Z" fill="#BD903C"/>
<path fill-rule="evenodd" clip-rule="evenodd" d="M72.3652 245.795C72.1424 245.924 71.9881 246.129 71.9023 246.412C71.707 248.159 71.5527 249.908 71.4395 251.658C71.2364 251.259 71.1333 250.796 71.1309 250.27C71.2852 248.881 71.4395 247.492 71.5938 246.104C71.7792 245.53 72.0363 245.427 72.3652 245.795Z" fill="#938771"/>
<path fill-rule="evenodd" clip-rule="evenodd" d="M68.6624 250.115C68.4698 249.987 68.3671 249.781 68.3538 249.498C68.8889 247.676 69.0432 245.824 68.8167 243.943C68.6985 244.115 68.5442 244.218 68.3538 244.252C68.3276 243.791 68.5331 243.482 68.971 243.326C69.3876 245.615 69.2845 247.878 68.6624 250.115Z" fill="#A79F90"/>
<path fill-rule="evenodd" clip-rule="evenodd" d="M234.068 249.498C235.1 250.219 236.128 250.939 237.154 251.658C236.64 252.378 236.023 252.995 235.303 253.51C234.642 252.248 234.23 250.91 234.068 249.498Z" fill="#E2E0DC"/>
<path fill-rule="evenodd" clip-rule="evenodd" d="M81.6233 247.029C81.9479 246.983 82.2565 247.034 82.5491 247.184C84.9496 248.874 87.0583 250.88 88.8753 253.201C90.0547 256.855 88.9746 259.581 85.635 261.379C84.2809 261.557 82.9438 261.454 81.6233 261.07C79.7202 259.579 77.8174 258.087 75.9143 256.596C75.6832 256.245 75.7344 255.937 76.0686 255.67C76.5849 256.159 77.2021 256.365 77.9202 256.287C79.0641 253.9 80.4528 251.637 82.0862 249.498C82.3059 248.591 82.1516 247.769 81.6233 247.029Z" fill="#BE913A"/>
<path fill-rule="evenodd" clip-rule="evenodd" d="M84.7086 250.115C86.7885 251.123 87.56 252.769 87.0231 255.053C86.1377 256.982 84.8518 258.577 83.1656 259.836C80.6404 260.081 79.7659 259.001 80.5426 256.596C81.9377 254.418 83.3264 252.258 84.7086 250.115Z" fill="#F2F0EE"/>
<path fill-rule="evenodd" clip-rule="evenodd" d="M227.279 251.041C227.587 251.032 227.793 251.186 227.896 251.504C227.377 252.089 227.223 252.757 227.434 253.51C228.822 255.721 230.211 257.933 231.6 260.144C232.135 260.345 232.649 260.294 233.143 259.99C233.245 260.196 233.348 260.401 233.451 260.607C231.914 261.835 230.371 263.069 228.822 264.31C229.174 261.458 228.197 258.989 225.891 256.904C225.852 255.838 225.337 255.118 224.348 254.744C223.767 255.085 223.201 255.085 222.65 254.744C224.146 253.433 225.689 252.198 227.279 251.041Z" fill="#BE913D"/>
<path fill-rule="evenodd" clip-rule="evenodd" d="M220.799 261.225C219.982 259.891 219.056 258.657 218.021 257.521C219.159 256.596 220.394 255.773 221.725 255.053C222.567 255.808 223.185 256.733 223.576 257.83C223.512 258.011 223.409 258.165 223.268 258.293C222.495 257.834 221.621 257.474 220.645 257.213C220.017 257.192 219.554 257.449 219.256 257.984C219.895 259.006 220.409 260.086 220.799 261.225Z" fill="#AF8949"/>
<path fill-rule="evenodd" clip-rule="evenodd" d="M97.6699 259.682C96.8361 262.839 96.6303 266.028 97.0527 269.248C97.3619 269.714 97.5678 270.229 97.6699 270.791C96.0973 270.353 94.6571 269.633 93.3496 268.631C93.1067 268.402 92.9012 268.145 92.7324 267.859C93.2367 267.707 93.7511 267.656 94.2754 267.705C94.3741 266.656 94.2714 265.628 93.9668 264.619C93.0907 264.027 92.1649 263.512 91.1895 263.076C89.4141 263.877 89.2086 264.957 90.5723 266.316C90.4695 266.471 90.3664 266.625 90.2637 266.779C88.7602 266.184 87.4231 265.361 86.252 264.311C87.0565 264.058 87.8795 263.904 88.7207 263.848C91.2462 261.476 93.8177 259.162 96.4355 256.904C96.8207 257.071 97.1808 257.277 97.5156 257.521C97.669 258.234 97.7202 258.954 97.6699 259.682Z" fill="#BC9039"/>
<path fill-rule="evenodd" clip-rule="evenodd" d="M218.021 257.521C219.056 258.657 219.982 259.891 220.798 261.225C221.85 262.713 222.571 264.359 222.959 266.162C223.686 266.112 224.406 266.163 225.119 266.316C223.43 267.316 221.785 268.396 220.181 269.557C220.078 269.402 219.975 269.248 219.873 269.094C220.26 268.637 220.569 268.123 220.798 267.551C220.747 267.294 220.696 267.036 220.644 266.779C219.211 264.405 218.028 261.936 217.095 259.373C216.223 259.244 215.555 259.552 215.089 260.299C215.034 261.241 214.88 262.167 214.626 263.076C213.652 262.371 213.189 261.446 213.238 260.299C214.824 259.327 216.418 258.401 218.021 257.521Z" fill="#C09338"/>
<path fill-rule="evenodd" clip-rule="evenodd" d="M47.0605 258.756C50.3927 261.934 53.6845 265.174 56.9355 268.477C57.1189 268.62 57.3247 268.671 57.5527 268.631C57.321 268.962 57.0124 269.014 56.627 268.785C53.2559 265.57 50.0672 262.227 47.0605 258.756Z" fill="#5B9DDB"/>
<path fill-rule="evenodd" clip-rule="evenodd" d="M94.2754 259.99C94.6275 260.959 94.679 261.988 94.4297 263.076C93.4372 263.432 92.6658 263.123 92.1152 262.15C92.7472 261.313 93.4675 260.593 94.2754 259.99Z" fill="#ECEBE9"/>
<path fill-rule="evenodd" clip-rule="evenodd" d="M102.298 260.916C103.558 261.231 104.793 261.643 106.002 262.15C106.851 265.27 107.777 268.356 108.779 271.408C109.759 269.35 110.273 267.19 110.322 264.928C110.013 264.928 109.705 264.928 109.396 264.928C109.396 264.619 109.396 264.311 109.396 264.002C111.103 264.431 112.646 265.151 114.025 266.162C113.93 266.411 113.776 266.617 113.562 266.779C113.038 266.5 112.472 266.397 111.865 266.471C110.699 269.297 109.619 272.178 108.625 275.111C108.203 276.244 107.586 276.348 106.773 275.42C105.946 271.796 105.02 268.196 103.996 264.619C103.187 266.598 102.416 268.604 101.681 270.637C101.787 271.604 102.095 272.479 102.607 273.26C101.226 272.888 99.8892 272.373 98.5953 271.717C98.3219 271.462 98.2191 271.154 98.2867 270.791C99.0067 270.791 99.7269 270.791 100.447 270.791C101.228 268.506 102.102 266.243 103.07 264.002C103.276 263.385 103.276 262.768 103.07 262.15C102.613 261.851 102.356 261.439 102.298 260.916Z" fill="#BB8F3D"/>
<path fill-rule="evenodd" clip-rule="evenodd" d="M97.6701 259.682C97.3735 262.864 97.168 266.053 97.0529 269.248C96.6304 266.028 96.8363 262.839 97.6701 259.682Z" fill="#A69D8B"/>
<path fill-rule="evenodd" clip-rule="evenodd" d="M207.838 271.408C207.529 271.1 207.221 270.791 206.912 270.482C206.109 269.525 205.235 268.599 204.289 267.705C204.135 269.142 204.083 270.581 204.135 272.025C204.292 273.238 204.137 274.473 203.672 275.729C203.517 272.027 203.466 268.324 203.517 264.619C204.023 264.398 204.537 264.346 205.06 264.465C207.323 266.934 209.586 269.402 211.849 271.871C212.49 271.93 213.108 272.085 213.701 272.334C213.554 272.636 213.348 272.893 213.084 273.105C211.525 273.639 210.033 274.308 208.609 275.111C208.455 275.009 208.301 274.906 208.146 274.803C208.508 274.288 208.919 273.825 209.381 273.414C208.922 272.699 208.408 272.03 207.838 271.408Z" fill="#C29338"/>
<path fill-rule="evenodd" clip-rule="evenodd" d="M196.111 275.42C195.809 274.816 195.501 274.199 195.185 273.568C195.907 272.039 196.319 270.393 196.42 268.631C195.905 268.631 195.391 268.631 194.877 268.631C194.834 268.13 195.039 267.77 195.494 267.551C196.534 267.221 197.563 266.861 198.58 266.471C198.683 266.625 198.786 266.779 198.888 266.934C198.463 267.553 198.051 268.17 197.654 268.785C197.21 271.025 196.695 273.236 196.111 275.42Z" fill="#AB884A"/>
<path fill-rule="evenodd" clip-rule="evenodd" d="M124.518 280.666C123.586 280.717 122.66 280.665 121.74 280.512C119.937 279.855 118.085 279.392 116.186 279.123C115.877 279.123 115.568 279.123 115.26 279.123C115.26 278.814 115.26 278.506 115.26 278.197C115.867 278.271 116.433 278.168 116.957 277.889C117.791 274.835 118.46 271.749 118.963 268.631C118.037 268.734 117.626 268.322 117.729 267.396C119.901 267.914 122.061 268.48 124.209 269.094C127.236 270.296 127.75 272.147 125.752 274.648C125.341 274.751 124.929 274.854 124.518 274.957C125.891 276.231 126.302 277.774 125.752 279.586C125.471 280.126 125.06 280.486 124.518 280.666Z" fill="#BF923A"/>
<path fill-rule="evenodd" clip-rule="evenodd" d="M206.912 270.482C206.048 271.07 205.122 271.584 204.134 272.025C204.083 270.581 204.135 269.142 204.289 267.705C205.235 268.599 206.109 269.525 206.912 270.482Z" fill="#DFDCD8"/>
<path fill-rule="evenodd" clip-rule="evenodd" d="M122.049 269.865C124.064 269.795 124.732 270.72 124.055 272.643C123.248 273.684 122.168 274.095 120.814 273.877C121.064 272.456 121.475 271.119 122.049 269.865Z" fill="#E7E4E1"/>
<path fill-rule="evenodd" clip-rule="evenodd" d="M137.787 283.135C137.508 283.354 137.405 283.662 137.479 284.061C136.45 283.958 135.421 283.855 134.393 283.752C132.007 283.692 129.744 283.178 127.604 282.209C128.269 282.054 128.783 281.746 129.146 281.283C129.724 280.044 130.033 278.707 130.072 277.271C130.166 275.517 130.217 273.768 130.227 272.025C129.915 271.767 129.554 271.664 129.146 271.717C129.146 271.408 129.146 271.1 129.146 270.791C132.274 271.266 135.36 271.832 138.404 272.488C138.569 273.537 138.569 274.617 138.404 275.729C138.096 275.729 137.787 275.729 137.479 275.729C137.645 274.756 137.337 273.984 136.553 273.414C135.559 273.02 134.53 272.763 133.467 272.643C133.273 274.075 133.171 275.515 133.158 276.963C133.886 277.013 134.606 276.962 135.318 276.809C135.542 275.985 136.056 275.522 136.861 275.42C136.496 277.117 136.188 278.814 135.936 280.512C135.643 280.702 135.386 280.651 135.164 280.357C135.327 278.468 134.452 277.645 132.541 277.889C132.464 279.434 132.361 280.977 132.232 282.518C133.459 282.774 134.694 282.825 135.936 282.672C137.894 279.85 138.511 280.004 137.787 283.135Z" fill="#B98F3E"/>
<path fill-rule="evenodd" clip-rule="evenodd" d="M195.186 273.568C195.501 274.199 195.81 274.816 196.111 275.42C196.55 276.282 196.858 277.208 197.037 278.197C197.663 278.147 198.28 278.199 198.889 278.352C199.3 278.557 199.3 278.763 198.889 278.969C197.389 279.354 195.949 279.868 194.568 280.512C194.026 280.758 193.511 280.706 193.025 280.357C193.695 279.923 194.209 279.357 194.568 278.66C193.515 275.55 191.561 273.184 188.705 271.562C187.882 271.357 187.059 271.357 186.236 271.562C186.052 271.89 185.949 272.25 185.928 272.643C186.484 275.954 187.102 279.246 187.779 282.518C187.154 282.568 186.537 282.516 185.928 282.363C183.608 280.197 181.242 278.089 178.83 276.037C178.608 278.264 178.968 280.424 179.91 282.518C180.434 282.797 181 282.9 181.607 282.826C181.651 283.327 181.445 283.687 180.99 283.906C179.698 284.41 178.361 284.667 176.979 284.678C176.979 284.369 176.979 284.061 176.979 283.752C178.043 283.729 178.455 283.164 178.213 282.055C177.893 279.734 177.533 277.42 177.133 275.111C176.563 274.327 175.791 274.019 174.818 274.186C174.818 273.774 174.818 273.363 174.818 272.951C176.266 272.722 177.706 272.568 179.139 272.488C181.258 274.352 183.316 276.255 185.311 278.197C185.607 276.391 185.35 274.642 184.539 272.951C183.998 272.411 183.329 272.205 182.533 272.334C182.533 271.923 182.533 271.511 182.533 271.1C184.475 270.776 186.43 270.519 188.396 270.328C189.861 269.526 191.404 268.96 193.025 268.631C193.025 268.939 193.025 269.248 193.025 269.557C192.717 269.557 192.408 269.557 192.1 269.557C192.632 271.227 193.661 272.565 195.186 273.568Z" fill="#BB903E"/>
<path fill-rule="evenodd" clip-rule="evenodd" d="M147.045 273.568C145.025 273.653 143.019 273.55 141.028 273.26C140.71 273.363 140.556 273.569 140.565 273.877C140.286 273.658 140.183 273.35 140.256 272.951C142.585 272.922 144.848 273.128 147.045 273.568Z" fill="#A69884"/>
<path fill-rule="evenodd" clip-rule="evenodd" d="M147.045 273.568C150.645 274.261 151.365 276.061 149.205 278.969C148.794 279.072 148.382 279.175 147.971 279.277C147.81 279.45 147.707 279.656 147.662 279.895C148.653 281.207 149.527 282.596 150.285 284.061C150.606 284.434 150.966 284.743 151.365 284.986C151.785 285.452 151.63 285.658 150.902 285.604C149.835 285.361 148.755 285.258 147.662 285.295C147.03 283.31 146.001 281.561 144.576 280.049C144.27 281.475 144.167 282.914 144.268 284.369C144.679 284.369 145.091 284.369 145.502 284.369C145.502 284.678 145.502 284.986 145.502 285.295C143.557 285.06 141.602 284.958 139.639 284.986C139.639 284.678 139.639 284.369 139.639 284.061C140.146 284.127 140.609 284.024 141.027 283.752C141.498 280.58 141.755 277.391 141.799 274.186C141.305 274.268 140.894 274.165 140.564 273.877C140.555 273.569 140.709 273.363 141.027 273.26C143.019 273.55 145.025 273.653 147.045 273.568Z" fill="#BE9039"/>
<path fill-rule="evenodd" clip-rule="evenodd" d="M166.795 284.369C167.171 284.573 167.582 284.779 168.029 284.986C166.704 285.345 165.366 285.396 164.018 285.141C164.517 285.068 164.826 284.811 164.943 284.369C166.298 280.779 167.532 277.128 168.646 273.414C169.255 273.261 169.873 273.21 170.498 273.26C171.792 276.592 173.181 279.884 174.664 283.135C175.007 283.673 175.469 284.084 176.053 284.369C174.307 284.822 172.559 284.925 170.807 284.678C171.061 284.404 171.37 284.301 171.732 284.369C171.455 281.314 169.912 280.491 167.104 281.9C166.828 282.698 166.725 283.521 166.795 284.369Z" fill="#BB903B"/>
<path fill-rule="evenodd" clip-rule="evenodd" d="M159.697 274.185C160.662 273.883 161.69 273.78 162.783 273.877C162.883 275.128 162.78 276.363 162.475 277.58C162.287 277.542 162.185 277.439 162.166 277.271C162.468 276.307 162.571 275.278 162.475 274.185C161.549 274.185 160.623 274.185 159.697 274.185Z" fill="#897F65"/>
<path fill-rule="evenodd" clip-rule="evenodd" d="M144.576 274.186C146.925 274.357 147.697 275.591 146.891 277.889C146.373 278.984 145.499 279.396 144.268 279.123C144.416 277.481 144.518 275.835 144.576 274.186Z" fill="#F0EFEE"/>
<path fill-rule="evenodd" clip-rule="evenodd" d="M159.697 274.186C160.623 274.186 161.549 274.186 162.475 274.186C162.571 275.279 162.468 276.307 162.166 277.271C161.882 276.399 161.368 275.679 160.623 275.111C160.078 274.815 159.461 274.712 158.771 274.803C158.662 278.161 158.867 281.453 159.389 284.678C159.718 284.966 160.13 285.069 160.623 284.986C159.931 285.391 159.108 285.597 158.154 285.604C157.331 285.552 156.509 285.501 155.686 285.449C155.857 285.331 155.96 285.177 155.994 284.986C156.301 281.75 156.404 278.458 156.303 275.111C154.311 274.942 153.282 275.868 153.217 277.889C152.908 277.889 152.6 277.889 152.291 277.889C152.291 276.654 152.291 275.42 152.291 274.186C154.76 274.186 157.229 274.186 159.697 274.186Z" fill="#BE9035"/>
<path fill-rule="evenodd" clip-rule="evenodd" d="M120.506 274.494C122.723 274.602 123.598 275.733 123.129 277.889C122.41 279.909 121.278 280.218 119.734 278.814C119.887 277.371 120.144 275.931 120.506 274.494Z" fill="#E9E7E3"/>
<path fill-rule="evenodd" clip-rule="evenodd" d="M203.518 264.619C203.466 268.324 203.518 272.027 203.672 275.729C204.138 274.473 204.292 273.238 204.135 272.025C205.123 271.584 206.048 271.07 206.912 270.482C207.221 270.791 207.529 271.1 207.838 271.408C205.087 271.587 203.955 273.027 204.443 275.729C204.987 275.773 205.502 275.67 205.986 275.42C206.398 275.729 206.398 276.037 205.986 276.346C204.768 276.765 203.585 277.28 202.438 277.889C202.283 277.786 202.129 277.683 201.975 277.58C202.498 277.313 202.858 276.902 203.055 276.346C203.107 272.383 203.261 268.474 203.518 264.619Z" fill="#A48446"/>
<path fill-rule="evenodd" clip-rule="evenodd" d="M160.623 275.111C160.109 275.111 159.595 275.111 159.08 275.111C159.091 278.304 159.194 281.493 159.389 284.678C158.868 281.453 158.662 278.161 158.772 274.803C159.462 274.712 160.079 274.815 160.623 275.111Z" fill="#988F7F"/>
<path fill-rule="evenodd" clip-rule="evenodd" d="M168.338 276.963C168.645 276.936 168.902 277.039 169.11 277.271C169.401 278.297 169.658 279.326 169.881 280.357C169.161 280.357 168.441 280.357 167.721 280.357C167.695 279.174 167.901 278.042 168.338 276.963Z" fill="#E9E8E6"/>
<path fill-rule="evenodd" clip-rule="evenodd" d="M116.186 279.123C118.085 279.392 119.937 279.855 121.74 280.512C122.66 280.665 123.586 280.717 124.518 280.666C123.549 281.018 122.52 281.07 121.432 280.82C119.619 280.336 117.87 279.77 116.186 279.123Z" fill="#99886C"/>
<path fill-rule="evenodd" clip-rule="evenodd" d="M130.072 277.271C130.033 278.707 129.724 280.044 129.146 281.283C129.264 279.866 129.573 278.529 130.072 277.271Z" fill="#9E907C"/>
<path fill-rule="evenodd" clip-rule="evenodd" d="M137.787 283.135C137.787 283.546 137.787 283.958 137.787 284.369C136.556 284.488 135.425 284.282 134.393 283.752C135.421 283.855 136.45 283.958 137.479 284.061C137.405 283.662 137.508 283.354 137.787 283.135Z" fill="#9F9481"/>
<path fill-rule="evenodd" clip-rule="evenodd" d="M164.943 284.369C164.826 284.811 164.517 285.068 164.018 285.141C165.366 285.396 166.704 285.345 168.029 284.986C167.582 284.779 167.171 284.573 166.795 284.369C167.309 284.369 167.823 284.369 168.338 284.369C168.338 284.78 168.338 285.192 168.338 285.604C166.795 285.604 165.252 285.604 163.709 285.604C163.709 285.295 163.709 284.986 163.709 284.678C164.159 284.698 164.571 284.596 164.943 284.369Z" fill="#94876D"/>
<path fill-rule="evenodd" clip-rule="evenodd" d="M151.365 284.986C151.843 285.085 152.049 285.394 151.982 285.912C150.473 285.902 149.033 285.696 147.662 285.295C148.755 285.258 149.835 285.361 150.902 285.604C151.63 285.658 151.785 285.452 151.365 284.986Z" fill="#928974"/>
<path fill-rule="evenodd" clip-rule="evenodd" d="M155.994 284.986C155.96 285.177 155.857 285.331 155.686 285.449C156.509 285.501 157.331 285.552 158.154 285.604C159.108 285.597 159.931 285.391 160.623 284.986C161.033 285.421 160.93 285.781 160.314 286.066C158.466 286.22 156.614 286.272 154.76 286.221C154.76 285.809 154.76 285.398 154.76 284.986C155.171 284.986 155.583 284.986 155.994 284.986Z" fill="#B4A899"/>
<path fill-rule="evenodd" clip-rule="evenodd" d="M146.428 315.229C151.67 315.482 156.916 315.583 162.166 315.537C162.166 315.639 162.166 315.744 162.166 315.846C157.64 315.846 153.114 315.846 148.588 315.846C147.868 315.639 147.148 315.435 146.428 315.229Z" fill="#80B5E5"/>
</g>
<defs>
<clipPath id="clip0_127_2011">
<rect width="316" height="316" fill="white"/>
</clipPath>
</defs>
</svg>
